<svg width="420" height="845" viewBox="0 0 420 845" fill="none" xmlns="http://www.w3.org/2000/svg">
<rect x="23" y="5" width="375" height="836" rx="40" fill="white"/>
<g clip-path="url(#clip0_8956_12591)">
<rect width="375" height="824" transform="translate(23 11)" fill="#FCFCFC"/>
<path d="M366.602 78.5757C366.309 78.5757 366.043 78.5065 365.805 78.3682C365.567 78.2243 365.376 78.0334 365.232 77.7954C365.094 77.5575 365.025 77.2946 365.025 77.0068C365.025 76.7135 365.094 76.4479 365.232 76.21C365.376 75.972 365.567 75.7839 365.805 75.6455C366.043 75.5016 366.309 75.4297 366.602 75.4297C366.89 75.4297 367.153 75.5016 367.391 75.6455C367.629 75.7839 367.817 75.972 367.955 76.21C368.099 76.4479 368.171 76.7135 368.171 77.0068C368.171 77.2946 368.099 77.5575 367.955 77.7954C367.817 78.0334 367.629 78.2243 367.391 78.3682C367.153 78.5065 366.89 78.5757 366.602 78.5757ZM372.77 78.5757C372.476 78.5757 372.211 78.5065 371.973 78.3682C371.735 78.2243 371.544 78.0334 371.4 77.7954C371.262 77.5575 371.192 77.2946 371.192 77.0068C371.192 76.7135 371.262 76.4479 371.4 76.21C371.544 75.972 371.735 75.7839 371.973 75.6455C372.211 75.5016 372.476 75.4297 372.77 75.4297C373.057 75.4297 373.32 75.5016 373.558 75.6455C373.796 75.7839 373.984 75.972 374.123 76.21C374.266 76.4479 374.338 76.7135 374.338 77.0068C374.338 77.2946 374.266 77.5575 374.123 77.7954C373.984 78.0334 373.796 78.2243 373.558 78.3682C373.32 78.5065 373.057 78.5757 372.77 78.5757ZM378.937 78.5757C378.644 78.5757 378.378 78.5065 378.14 78.3682C377.902 78.2243 377.711 78.0334 377.567 77.7954C377.429 77.5575 377.36 77.2946 377.36 77.0068C377.36 76.7135 377.429 76.4479 377.567 76.21C377.711 75.972 377.902 75.7839 378.14 75.6455C378.378 75.5016 378.644 75.4297 378.937 75.4297C379.225 75.4297 379.488 75.5016 379.726 75.6455C379.964 75.7839 380.154 75.972 380.298 76.21C380.442 76.4479 380.514 76.7135 380.514 77.0068C380.514 77.2946 380.442 77.5575 380.298 77.7954C380.154 78.0334 379.964 78.2243 379.726 78.3682C379.488 78.5065 379.225 78.5757 378.937 78.5757Z" fill="#2B6CB0"/>
<path d="M30.4414 76.5391C30.4531 76.1406 30.5938 75.8008 30.9102 75.4961L40.0508 66.5547C40.2969 66.2969 40.625 66.168 41 66.168C41.7617 66.168 42.3594 66.7539 42.3594 67.5156C42.3594 67.8906 42.207 68.2305 41.9492 68.5L33.7109 76.5391L41.9492 84.5781C42.207 84.8359 42.3594 85.1758 42.3594 85.5508C42.3594 86.3242 41.7617 86.9102 41 86.9102C40.625 86.9102 40.2969 86.7812 40.0508 86.5234L30.9102 77.582C30.5938 77.2773 30.4414 76.9375 30.4414 76.5391Z" fill="#2B6CB0"/>
<path d="M50.0866 82V80.9134L56.7514 70.9645H50.0142V69.6364H58.5384V70.723L51.8736 80.6719H58.6108V82H50.0866ZM66.3647 78.2088V72.7273H67.7894V82H66.3647V80.4304H66.2681C66.0508 80.9013 65.7127 81.3017 65.2539 81.6317C64.7951 81.9577 64.2156 82.1207 63.5153 82.1207C62.9358 82.1207 62.4206 81.994 61.9698 81.7404C61.5191 81.4828 61.1649 81.0965 60.9073 80.5813C60.6498 80.0621 60.521 79.4081 60.521 78.6193V72.7273H61.9457V78.5227C61.9457 79.1989 62.1349 79.7382 62.5132 80.1406C62.8955 80.5431 63.3825 80.7443 63.9741 80.7443C64.3283 80.7443 64.6885 80.6538 65.0547 80.4727C65.425 80.2915 65.7349 80.0138 65.9844 79.6396C66.238 79.2653 66.3647 78.7884 66.3647 78.2088ZM69.9909 82V72.7273H71.3673V74.1278H71.4639C71.633 73.669 71.9388 73.2968 72.3815 73.011C72.8242 72.7253 73.3233 72.5824 73.8787 72.5824C73.9833 72.5824 74.1141 72.5844 74.2711 72.5884C74.4281 72.5924 74.5468 72.5985 74.6273 72.6065V74.0554C74.579 74.0433 74.4683 74.0252 74.2952 74.0011C74.1262 73.9729 73.9471 73.9588 73.758 73.9588C73.3072 73.9588 72.9047 74.0534 72.5506 74.2425C72.2004 74.4277 71.9227 74.6853 71.7175 75.0153C71.5162 75.3413 71.4156 75.7135 71.4156 76.1321V82H69.9909ZM81.7519 78.2088V72.7273H83.1766V82H81.7519V80.4304H81.6553C81.4379 80.9013 81.0999 81.3017 80.6411 81.6317C80.1823 81.9577 79.6027 82.1207 78.9024 82.1207C78.3229 82.1207 77.8077 81.994 77.357 81.7404C76.9062 81.4828 76.552 81.0965 76.2945 80.5813C76.0369 80.0621 75.9081 79.4081 75.9081 78.6193V72.7273H77.3328V78.5227C77.3328 79.1989 77.522 79.7382 77.9003 80.1406C78.2826 80.5431 78.7696 80.7443 79.3612 80.7443C79.7154 80.7443 80.0756 80.6538 80.4418 80.4727C80.8121 80.2915 81.122 80.0138 81.3715 79.6396C81.6251 79.2653 81.7519 78.7884 81.7519 78.2088ZM77.8158 71.1818C77.5622 71.1818 77.3368 71.0852 77.1396 70.892C76.9465 70.6948 76.8499 70.4695 76.8499 70.2159C76.8499 69.9382 76.9465 69.7088 77.1396 69.5277C77.3368 69.3426 77.5622 69.25 77.8158 69.25C78.0935 69.25 78.3229 69.3426 78.504 69.5277C78.6891 69.7088 78.7817 69.9382 78.7817 70.2159C78.7817 70.4695 78.6891 70.6948 78.504 70.892C78.3229 71.0852 78.0935 71.1818 77.8158 71.1818ZM81.293 71.1818C81.0395 71.1818 80.8141 71.0852 80.6169 70.892C80.4237 70.6948 80.3271 70.4695 80.3271 70.2159C80.3271 69.9382 80.4237 69.7088 80.6169 69.5277C80.8141 69.3426 81.0395 69.25 81.293 69.25C81.5707 69.25 81.8001 69.3426 81.9813 69.5277C82.1664 69.7088 82.259 69.9382 82.259 70.2159C82.259 70.4695 82.1664 70.6948 81.9813 70.892C81.8001 71.0852 81.5707 71.1818 81.293 71.1818ZM89.1451 82.1932C88.2758 82.1932 87.5272 81.9879 86.8993 81.5774C86.2715 81.1669 85.7885 80.6014 85.4505 79.881C85.1124 79.1606 84.9434 78.3376 84.9434 77.4119C84.9434 76.4702 85.1164 75.6391 85.4625 74.9187C85.8127 74.1942 86.2997 73.6288 86.9235 73.2223C87.5513 72.8118 88.2838 72.6065 89.1209 72.6065C89.7729 72.6065 90.3605 72.7273 90.8837 72.9688C91.4069 73.2102 91.8355 73.5483 92.1696 73.983C92.5036 74.4176 92.7109 74.9247 92.7914 75.5043H91.3667C91.258 75.0817 91.0165 74.7074 90.6422 74.3814C90.272 74.0514 89.7729 73.8864 89.1451 73.8864C88.5897 73.8864 88.1027 74.0312 87.6841 74.321C87.2696 74.6068 86.9456 75.0112 86.7122 75.5344C86.4828 76.0536 86.3681 76.6634 86.3681 77.3636C86.3681 78.08 86.4808 78.7038 86.7062 79.2351C86.9356 79.7663 87.2575 80.1789 87.6721 80.4727C88.0906 80.7665 88.5816 80.9134 89.1451 80.9134C89.5153 80.9134 89.8514 80.849 90.1532 80.7202C90.4551 80.5914 90.7107 80.4062 90.9199 80.1648C91.1292 79.9233 91.2781 79.6335 91.3667 79.2955H92.7914C92.7109 79.8428 92.5117 80.3358 92.1937 80.7745C91.8798 81.2092 91.4633 81.5553 90.9441 81.8129C90.4289 82.0664 89.8293 82.1932 89.1451 82.1932ZM95.7942 78.6193L95.7701 76.8565H96.0599L100.117 72.7273H101.879L97.557 77.098H97.4363L95.7942 78.6193ZM94.4661 82V69.6364H95.8908V82H94.4661ZM100.358 82L96.736 77.4119L97.7502 76.4219L102.169 82H100.358Z" fill="#2B6CB0"/>
<rect x="38" y="109" width="56" height="56" rx="28" fill="#EBFFF0"/>
<path d="M51.2393 130.165C51.2393 128.847 51.5758 127.845 52.249 127.157C52.9294 126.463 53.932 126.115 55.2568 126.115H56.4707V128.758H55.2031C54.7806 128.758 54.4548 128.88 54.2256 129.123C54.0036 129.367 53.8926 129.707 53.8926 130.144C53.8926 130.817 54.0143 131.547 54.2578 132.335C54.5013 133.123 54.8307 133.903 55.2461 134.677C55.6615 135.443 56.127 136.145 56.6426 136.782C57.1654 137.412 57.7061 137.921 58.2646 138.308C58.8232 138.687 59.3675 138.877 59.8975 138.877C60.4202 138.877 60.9609 138.687 61.5195 138.308C62.0781 137.921 62.6188 137.412 63.1416 136.782C63.6644 136.145 64.1335 135.443 64.5488 134.677C64.9642 133.903 65.2936 133.123 65.5371 132.335C65.7806 131.547 65.9023 130.817 65.9023 130.144C65.9023 129.707 65.7878 129.367 65.5586 129.123C65.3366 128.88 65.0107 128.758 64.5811 128.758H63.3135V126.115H64.5273C65.8594 126.115 66.862 126.463 67.5352 127.157C68.2083 127.845 68.5449 128.847 68.5449 130.165C68.5449 131.132 68.3766 132.142 68.04 133.194C67.7106 134.247 67.263 135.268 66.6973 136.256C66.1315 137.244 65.487 138.136 64.7637 138.931C64.0404 139.726 63.2812 140.356 62.4863 140.821C61.6986 141.287 60.9215 141.52 60.1553 141.52H59.6396C58.8662 141.52 58.082 141.287 57.2871 140.821C56.4993 140.356 55.7438 139.726 55.0205 138.931C54.2972 138.136 53.6527 137.244 53.0869 136.256C52.5212 135.268 52.07 134.247 51.7334 133.194C51.404 132.142 51.2393 131.132 51.2393 130.165ZM64.5059 149.598C62.5293 149.598 61.0326 148.774 60.0156 147.127C58.9987 145.487 58.5117 143.109 58.5547 139.994H61.1973C61.1686 142.243 61.4336 143.962 61.9922 145.15C62.5508 146.346 63.3923 146.944 64.5166 146.944C65.0967 146.944 65.5908 146.815 65.999 146.558C66.4144 146.3 66.7653 145.917 67.0518 145.408C67.3382 144.9 67.5817 144.27 67.7822 143.518C67.9827 142.766 68.1618 141.899 68.3193 140.918C68.5557 139.407 68.9066 138.172 69.3721 137.212C69.8447 136.245 70.4391 135.533 71.1553 135.074C71.8786 134.616 72.7344 134.387 73.7227 134.387C74.7897 134.387 75.6885 134.662 76.4189 135.214C77.1494 135.758 77.7116 136.614 78.1055 137.781C78.4993 138.949 78.7249 140.46 78.7822 142.314H76.1182C76.1253 141.047 76.0322 140.026 75.8389 139.253C75.6527 138.479 75.377 137.917 75.0117 137.566C74.6465 137.208 74.1989 137.029 73.6689 137.029C73.2035 137.029 72.7952 137.173 72.4443 137.459C72.1006 137.745 71.7998 138.229 71.542 138.909C71.2913 139.582 71.0765 140.495 70.8975 141.648C70.6396 143.417 70.2493 144.889 69.7266 146.063C69.2038 147.245 68.5127 148.13 67.6533 148.717C66.8011 149.304 65.752 149.598 64.5059 149.598ZM56.9111 129.413C56.3669 129.413 55.8978 129.22 55.5039 128.833C55.1172 128.439 54.9238 127.97 54.9238 127.426C54.9238 126.882 55.1172 126.416 55.5039 126.029C55.8978 125.635 56.3669 125.438 56.9111 125.438C57.4554 125.438 57.9209 125.635 58.3076 126.029C58.6943 126.416 58.8877 126.882 58.8877 127.426C58.8877 127.97 58.6943 128.439 58.3076 128.833C57.9209 129.22 57.4554 129.413 56.9111 129.413ZM62.873 129.413C62.3288 129.413 61.8597 129.22 61.4658 128.833C61.0791 128.439 60.8857 127.97 60.8857 127.426C60.8857 126.882 61.0791 126.416 61.4658 126.029C61.8597 125.635 62.3288 125.438 62.873 125.438C63.4173 125.438 63.8828 125.635 64.2695 126.029C64.6634 126.416 64.8604 126.882 64.8604 127.426C64.8604 127.97 64.6634 128.439 64.2695 128.833C63.8828 129.22 63.4173 129.413 62.873 129.413ZM77.5146 148.266C76.82 148.266 76.1862 148.094 75.6133 147.75C75.0404 147.406 74.582 146.948 74.2383 146.375C73.8945 145.802 73.7227 145.165 73.7227 144.463C73.7227 143.768 73.8945 143.134 74.2383 142.562C74.582 141.989 75.0404 141.534 75.6133 141.197C76.1862 140.854 76.82 140.682 77.5146 140.682C78.2093 140.682 78.8431 140.854 79.416 141.197C79.9889 141.534 80.4473 141.989 80.791 142.562C81.1348 143.134 81.3066 143.768 81.3066 144.463C81.3066 145.165 81.1348 145.802 80.791 146.375C80.4473 146.948 79.9889 147.406 79.416 147.75C78.8431 148.094 78.2093 148.266 77.5146 148.266ZM77.5254 145.87C77.7832 145.87 78.016 145.806 78.2236 145.677C78.4385 145.548 78.6068 145.376 78.7285 145.161C78.8574 144.946 78.9219 144.714 78.9219 144.463C78.9219 144.198 78.8574 143.962 78.7285 143.754C78.6068 143.539 78.4385 143.371 78.2236 143.249C78.016 143.127 77.7832 143.066 77.5254 143.066C77.2676 143.066 77.0312 143.127 76.8164 143.249C76.6016 143.371 76.4297 143.539 76.3008 143.754C76.179 143.962 76.1182 144.198 76.1182 144.463C76.1182 144.714 76.179 144.946 76.3008 145.161C76.4297 145.376 76.6016 145.548 76.8164 145.677C77.0312 145.806 77.2676 145.87 77.5254 145.87Z" fill="#276749"/>
<path d="M41.1904 190.112V187.577H45.0791C46.0101 187.577 46.7334 187.341 47.249 186.868C47.7718 186.388 48.0332 185.708 48.0332 184.827V184.806C48.0332 183.925 47.7718 183.248 47.249 182.775C46.7334 182.303 46.0101 182.066 45.0791 182.066H41.1904V179.499H45.874C46.9626 179.499 47.915 179.721 48.7314 180.165C49.5479 180.602 50.1816 181.218 50.6328 182.013C51.0911 182.808 51.3203 183.735 51.3203 184.795V184.816C51.3203 185.883 51.0911 186.814 50.6328 187.609C50.1816 188.404 49.5479 189.02 48.7314 189.457C47.915 189.894 46.9626 190.112 45.874 190.112H41.1904ZM39.5684 195V179.499H42.8125V195H39.5684ZM53.058 195V183.334H56.1947V185.268H56.3236C56.5027 184.587 56.8321 184.061 57.3119 183.688C57.7917 183.309 58.3897 183.119 59.1059 183.119C59.2992 183.119 59.4854 183.133 59.6645 183.162C59.8507 183.184 60.0082 183.216 60.1371 183.259V186.009C59.9652 185.951 59.7683 185.909 59.5463 185.88C59.3243 185.844 59.0951 185.826 58.8588 185.826C58.3074 185.826 57.8311 185.934 57.4301 186.148C57.0362 186.356 56.7318 186.657 56.517 187.051C56.3021 187.438 56.1947 187.91 56.1947 188.469V195H53.058ZM64.4959 195.183C63.7368 195.183 63.0672 195.036 62.4871 194.742C61.907 194.449 61.4523 194.037 61.1229 193.507C60.7934 192.977 60.6287 192.365 60.6287 191.67V191.648C60.6287 190.947 60.8042 190.345 61.1551 189.844C61.5132 189.342 62.0288 188.949 62.702 188.662C63.3751 188.368 64.1951 188.193 65.1619 188.136L69.6092 187.856V189.79L65.6346 190.048C64.9972 190.084 64.5174 190.227 64.1951 190.478C63.8729 190.728 63.7117 191.061 63.7117 191.477V191.498C63.7117 191.935 63.88 192.279 64.2166 192.529C64.5532 192.773 64.99 192.895 65.5271 192.895C66.007 192.895 66.4331 192.801 66.8055 192.615C67.1779 192.429 67.4715 192.175 67.6863 191.853C67.9083 191.523 68.0193 191.154 68.0193 190.746V187.126C68.0193 186.61 67.851 186.209 67.5145 185.923C67.185 185.636 66.7052 185.493 66.075 185.493C65.5021 185.493 65.0402 185.604 64.6893 185.826C64.3383 186.041 64.1128 186.331 64.0125 186.696L63.991 186.761H61.1121L61.1229 186.653C61.1945 185.944 61.4415 185.325 61.8641 184.795C62.2938 184.265 62.8774 183.85 63.615 183.549C64.3527 183.248 65.2228 183.098 66.2254 183.098C67.2423 183.098 68.116 183.259 68.8465 183.581C69.5841 183.896 70.1499 184.347 70.5438 184.935C70.9376 185.522 71.1346 186.216 71.1346 187.019V195H68.0193V193.356H67.8904C67.6827 193.736 67.4106 194.062 67.074 194.334C66.7374 194.606 66.3507 194.817 65.9139 194.968C65.477 195.111 65.0044 195.183 64.4959 195.183ZM72.4211 195L76.0842 189.21L72.4211 183.334H75.9875L78.0715 187.244H78.1896L80.2629 183.334H83.6789L80.0158 189.103L83.6789 195H80.2307L78.0393 191.047H77.9104L75.7297 195H72.4211ZM85.0514 195V183.334H88.1881V195H85.0514ZM86.6197 181.701C86.1471 181.701 85.7424 181.536 85.4059 181.207C85.0693 180.878 84.901 180.48 84.901 180.015C84.901 179.549 85.0693 179.152 85.4059 178.822C85.7424 178.493 86.1471 178.328 86.6197 178.328C87.0995 178.328 87.5042 178.493 87.8336 178.822C88.1702 179.152 88.3385 179.549 88.3385 180.015C88.3385 180.48 88.1702 180.878 87.8336 181.207C87.5042 181.536 87.0995 181.701 86.6197 181.701ZM95.1035 195.247C94.0365 195.247 93.127 195.097 92.375 194.796C91.6302 194.488 91.0465 194.069 90.624 193.539C90.2015 193.002 89.9508 192.382 89.8721 191.681L89.8613 191.605H92.9336L92.9551 191.681C93.0697 192.089 93.3024 192.415 93.6533 192.658C94.0114 192.902 94.502 193.023 95.125 193.023C95.526 193.023 95.8698 192.973 96.1562 192.873C96.4499 192.773 96.6755 192.63 96.833 192.443C96.9977 192.25 97.0801 192.028 97.0801 191.777V191.767C97.0801 191.451 96.9583 191.197 96.7148 191.004C96.4785 190.803 96.0703 190.639 95.4902 190.51L93.5244 190.091C92.7796 189.933 92.1566 189.704 91.6553 189.403C91.154 189.103 90.778 188.734 90.5273 188.297C90.2839 187.853 90.1621 187.341 90.1621 186.761V186.75C90.1621 186.005 90.3626 185.361 90.7637 184.816C91.1647 184.272 91.7305 183.85 92.4609 183.549C93.1986 183.248 94.0544 183.098 95.0283 183.098C96.0524 183.098 96.9225 183.259 97.6387 183.581C98.362 183.896 98.917 184.322 99.3037 184.859C99.6904 185.389 99.8981 185.984 99.9268 186.643V186.718H97.0264L97.0156 186.653C96.9512 186.281 96.7507 185.966 96.4141 185.708C96.0775 185.443 95.6156 185.311 95.0283 185.311C94.6702 185.311 94.3551 185.364 94.083 185.472C93.8109 185.572 93.5996 185.715 93.4492 185.901C93.2988 186.088 93.2236 186.31 93.2236 186.567V186.578C93.2236 186.779 93.2738 186.958 93.374 187.115C93.4743 187.266 93.6426 187.402 93.8789 187.523C94.1152 187.638 94.4303 187.738 94.8242 187.824L96.79 188.243C97.986 188.494 98.8561 188.873 99.4004 189.382C99.9447 189.89 100.217 190.574 100.217 191.434V191.444C100.217 192.211 99.9984 192.88 99.5615 193.453C99.1247 194.019 98.5231 194.459 97.7568 194.774C96.9906 195.09 96.1061 195.247 95.1035 195.247ZM106.721 195V179.499H112.726C114.273 179.499 115.591 179.8 116.679 180.401C117.775 180.996 118.613 181.862 119.193 183.001C119.773 184.14 120.063 185.525 120.063 187.158V187.18C120.063 188.827 119.773 190.238 119.193 191.412C118.613 192.579 117.779 193.471 116.69 194.087C115.602 194.696 114.28 195 112.726 195H106.721ZM109.966 192.325H112.275C113.242 192.325 114.055 192.132 114.714 191.745C115.38 191.351 115.885 190.775 116.228 190.016C116.579 189.249 116.755 188.311 116.755 187.201V187.18C116.755 186.113 116.576 185.207 116.218 184.462C115.867 183.71 115.358 183.141 114.692 182.754C114.026 182.367 113.221 182.174 112.275 182.174H109.966V192.325ZM121.93 195V183.334H125.067V185.268H125.196C125.375 184.587 125.704 184.061 126.184 183.688C126.664 183.309 127.262 183.119 127.978 183.119C128.171 183.119 128.357 183.133 128.536 183.162C128.723 183.184 128.88 183.216 129.009 183.259V186.009C128.837 185.951 128.64 185.909 128.418 185.88C128.196 185.844 127.967 185.826 127.731 185.826C127.179 185.826 126.703 185.934 126.302 186.148C125.908 186.356 125.604 186.657 125.389 187.051C125.174 187.438 125.067 187.91 125.067 188.469V195H121.93ZM130.693 195.226C130.177 195.226 129.748 195.054 129.404 194.71C129.06 194.359 128.888 193.929 128.888 193.421C128.888 192.912 129.06 192.486 129.404 192.143C129.748 191.799 130.177 191.627 130.693 191.627C131.216 191.627 131.649 191.799 131.993 192.143C132.337 192.486 132.508 192.912 132.508 193.421C132.508 193.929 132.337 194.359 131.993 194.71C131.649 195.054 131.216 195.226 130.693 195.226ZM144.588 195.333C143.357 195.333 142.282 195.15 141.366 194.785C140.456 194.42 139.74 193.897 139.217 193.217C138.702 192.536 138.412 191.731 138.347 190.8L138.336 190.628H141.43L141.452 190.735C141.509 191.129 141.677 191.473 141.956 191.767C142.243 192.06 142.615 192.289 143.074 192.454C143.539 192.612 144.069 192.69 144.663 192.69C145.258 192.69 145.774 192.608 146.21 192.443C146.647 192.271 146.984 192.035 147.22 191.734C147.464 191.434 147.585 191.086 147.585 190.692V190.682C147.585 190.166 147.378 189.758 146.962 189.457C146.554 189.156 145.87 188.906 144.911 188.705L143.267 188.383C141.706 188.061 140.546 187.531 139.787 186.793C139.035 186.048 138.659 185.092 138.659 183.925V183.914C138.666 182.962 138.92 182.131 139.421 181.422C139.93 180.713 140.628 180.161 141.516 179.768C142.411 179.367 143.428 179.166 144.567 179.166C145.77 179.166 146.805 179.359 147.671 179.746C148.538 180.126 149.215 180.656 149.702 181.336C150.189 182.009 150.461 182.79 150.518 183.678L150.529 183.85H147.478L147.456 183.721C147.399 183.327 147.245 182.99 146.995 182.711C146.744 182.424 146.411 182.202 145.996 182.045C145.587 181.887 145.111 181.809 144.567 181.809C144.03 181.809 143.561 181.887 143.16 182.045C142.759 182.202 142.447 182.424 142.225 182.711C142.01 182.99 141.903 183.32 141.903 183.699V183.71C141.903 184.204 142.107 184.605 142.515 184.913C142.93 185.221 143.589 185.465 144.492 185.644L146.124 185.977C147.22 186.199 148.112 186.499 148.799 186.879C149.494 187.258 150.006 187.735 150.335 188.308C150.665 188.881 150.829 189.572 150.829 190.381V190.392C150.829 191.401 150.579 192.275 150.078 193.013C149.583 193.75 148.867 194.323 147.929 194.731C146.998 195.132 145.885 195.333 144.588 195.333ZM157.874 195.247C156.678 195.247 155.65 195.004 154.791 194.517C153.939 194.03 153.283 193.331 152.825 192.422C152.374 191.512 152.148 190.424 152.148 189.156V189.135C152.148 187.874 152.374 186.793 152.825 185.891C153.283 184.988 153.939 184.297 154.791 183.817C155.65 183.338 156.674 183.098 157.863 183.098C158.909 183.098 159.811 183.284 160.57 183.656C161.329 184.029 161.927 184.544 162.364 185.203C162.801 185.862 163.052 186.621 163.116 187.48V187.534H160.205L160.183 187.47C160.09 186.911 159.85 186.453 159.464 186.095C159.077 185.737 158.554 185.558 157.895 185.558C157.358 185.558 156.896 185.701 156.51 185.987C156.13 186.267 155.84 186.675 155.639 187.212C155.439 187.742 155.339 188.386 155.339 189.146V189.167C155.339 189.94 155.439 190.596 155.639 191.133C155.847 191.67 156.141 192.082 156.52 192.368C156.9 192.647 157.358 192.787 157.895 192.787C158.533 192.787 159.041 192.622 159.421 192.293C159.807 191.964 160.062 191.502 160.183 190.907L160.205 190.843H163.116V190.907C163.037 191.752 162.776 192.501 162.332 193.152C161.895 193.804 161.301 194.316 160.549 194.688C159.797 195.061 158.905 195.247 157.874 195.247ZM164.779 195V179.102H167.915V185.246H168.033C168.32 184.566 168.757 184.039 169.344 183.667C169.931 183.287 170.651 183.098 171.503 183.098C172.355 183.098 173.082 183.277 173.684 183.635C174.285 183.993 174.744 184.505 175.059 185.171C175.381 185.837 175.542 186.639 175.542 187.577V195H172.405V188.254C172.405 187.43 172.219 186.8 171.847 186.363C171.482 185.919 170.937 185.697 170.214 185.697C169.741 185.697 169.333 185.808 168.989 186.03C168.646 186.245 168.381 186.546 168.195 186.933C168.008 187.319 167.915 187.774 167.915 188.297V195H164.779ZM177.645 195V183.334H180.782V185.203H180.911C181.197 184.551 181.63 184.039 182.211 183.667C182.791 183.287 183.51 183.098 184.37 183.098C185.659 183.098 186.647 183.481 187.335 184.247C188.022 185.013 188.366 186.088 188.366 187.47V195H185.229V188.146C185.229 187.352 185.054 186.746 184.703 186.331C184.352 185.909 183.815 185.697 183.091 185.697C182.619 185.697 182.211 185.805 181.867 186.02C181.523 186.234 181.254 186.535 181.061 186.922C180.875 187.309 180.782 187.76 180.782 188.275V195H177.645ZM195.679 195.247C194.497 195.247 193.477 195.004 192.617 194.517C191.765 194.022 191.11 193.324 190.651 192.422C190.193 191.512 189.964 190.435 189.964 189.188V189.178C189.964 187.939 190.193 186.865 190.651 185.955C191.11 185.046 191.758 184.344 192.596 183.85C193.434 183.348 194.418 183.098 195.55 183.098C196.688 183.098 197.67 183.341 198.493 183.828C199.324 184.308 199.965 184.988 200.416 185.869C200.867 186.743 201.093 187.767 201.093 188.941V189.919H191.511V187.942H199.6L198.117 189.801V188.565C198.117 187.878 198.01 187.301 197.795 186.836C197.587 186.37 197.294 186.023 196.914 185.794C196.542 185.558 196.105 185.439 195.604 185.439C195.109 185.439 194.669 185.561 194.282 185.805C193.903 186.041 193.602 186.396 193.38 186.868C193.165 187.334 193.058 187.899 193.058 188.565V189.812C193.058 190.456 193.165 191.011 193.38 191.477C193.602 191.935 193.913 192.286 194.314 192.529C194.715 192.773 195.192 192.895 195.743 192.895C196.187 192.895 196.567 192.83 196.882 192.701C197.204 192.565 197.462 192.4 197.655 192.207C197.856 192.007 197.992 191.813 198.063 191.627L198.096 191.562H200.996L200.964 191.681C200.878 192.082 200.71 192.49 200.459 192.905C200.215 193.321 199.879 193.707 199.449 194.065C199.027 194.416 198.504 194.703 197.881 194.925C197.258 195.14 196.524 195.247 195.679 195.247ZM202.798 195V183.334H205.935V195H202.798ZM204.367 181.701C203.894 181.701 203.489 181.536 203.153 181.207C202.816 180.878 202.648 180.48 202.648 180.015C202.648 179.549 202.816 179.152 203.153 178.822C203.489 178.493 203.894 178.328 204.367 178.328C204.846 178.328 205.251 178.493 205.58 178.822C205.917 179.152 206.085 179.549 206.085 180.015C206.085 180.48 205.917 180.878 205.58 181.207C205.251 181.536 204.846 181.701 204.367 181.701ZM212.378 195.215C211.404 195.215 210.562 194.971 209.853 194.484C209.144 193.997 208.596 193.303 208.21 192.4C207.83 191.498 207.64 190.424 207.64 189.178V189.156C207.64 187.896 207.83 186.818 208.21 185.923C208.589 185.021 209.134 184.329 209.843 183.85C210.552 183.363 211.397 183.119 212.378 183.119C212.922 183.119 213.423 183.209 213.882 183.388C214.34 183.56 214.741 183.807 215.085 184.129C215.436 184.451 215.715 184.838 215.923 185.289H216.041V179.102H219.178V195H216.041V193.099H215.923C215.715 193.543 215.439 193.922 215.096 194.237C214.759 194.545 214.361 194.785 213.903 194.957C213.445 195.129 212.936 195.215 212.378 195.215ZM213.43 192.615C213.968 192.615 214.433 192.476 214.827 192.196C215.221 191.917 215.525 191.523 215.74 191.015C215.955 190.499 216.062 189.887 216.062 189.178V189.167C216.062 188.458 215.951 187.846 215.729 187.33C215.514 186.814 215.21 186.417 214.816 186.138C214.422 185.858 213.96 185.719 213.43 185.719C212.901 185.719 212.439 185.858 212.045 186.138C211.658 186.417 211.357 186.814 211.142 187.33C210.935 187.839 210.831 188.447 210.831 189.156V189.178C210.831 189.887 210.935 190.499 211.142 191.015C211.35 191.53 211.651 191.928 212.045 192.207C212.439 192.479 212.901 192.615 213.43 192.615ZM226.641 195.247C225.459 195.247 224.439 195.004 223.579 194.517C222.727 194.022 222.072 193.324 221.613 192.422C221.155 191.512 220.926 190.435 220.926 189.188V189.178C220.926 187.939 221.155 186.865 221.613 185.955C222.072 185.046 222.72 184.344 223.558 183.85C224.396 183.348 225.38 183.098 226.512 183.098C227.651 183.098 228.632 183.341 229.455 183.828C230.286 184.308 230.927 184.988 231.378 185.869C231.829 186.743 232.055 187.767 232.055 188.941V189.919H222.473V187.942H230.562L229.079 189.801V188.565C229.079 187.878 228.972 187.301 228.757 186.836C228.549 186.37 228.256 186.023 227.876 185.794C227.504 185.558 227.067 185.439 226.566 185.439C226.071 185.439 225.631 185.561 225.244 185.805C224.865 186.041 224.564 186.396 224.342 186.868C224.127 187.334 224.02 187.899 224.02 188.565V189.812C224.02 190.456 224.127 191.011 224.342 191.477C224.564 191.935 224.876 192.286 225.277 192.529C225.678 192.773 226.154 192.895 226.705 192.895C227.149 192.895 227.529 192.83 227.844 192.701C228.166 192.565 228.424 192.4 228.617 192.207C228.818 192.007 228.954 191.813 229.026 191.627L229.058 191.562H231.958L231.926 191.681C231.84 192.082 231.672 192.49 231.421 192.905C231.178 193.321 230.841 193.707 230.411 194.065C229.989 194.416 229.466 194.703 228.843 194.925C228.22 195.14 227.486 195.247 226.641 195.247ZM233.717 195V183.334H236.854V185.268H236.983C237.162 184.587 237.491 184.061 237.971 183.688C238.451 183.309 239.049 183.119 239.765 183.119C239.959 183.119 240.145 183.133 240.324 183.162C240.51 183.184 240.668 183.216 240.796 183.259V186.009C240.625 185.951 240.428 185.909 240.206 185.88C239.984 185.844 239.754 185.826 239.518 185.826C238.967 185.826 238.49 185.934 238.089 186.148C237.696 186.356 237.391 186.657 237.176 187.051C236.962 187.438 236.854 187.91 236.854 188.469V195H233.717Z" fill="black"/>
<path d="M38.5054 224L42.4019 213.431H43.7056L47.6021 224H46.2178L45.1558 220.975H40.9517L39.8896 224H38.5054ZM42.9951 215.138L41.3398 219.854H44.7676L43.1123 215.138H42.9951ZM51.5295 224.139C49.53 224.139 48.219 222.521 48.219 220.06V220.045C48.219 217.569 49.5227 215.965 51.5295 215.965C52.6135 215.965 53.5583 216.507 53.9905 217.35H54.1077V212.97H55.3821V224H54.1077V222.74H53.9905C53.5071 223.619 52.6282 224.139 51.5295 224.139ZM51.8225 223.011C53.258 223.011 54.137 221.883 54.137 220.06V220.045C54.137 218.221 53.258 217.093 51.8225 217.093C50.3796 217.093 49.5227 218.207 49.5227 220.045V220.06C49.5227 221.898 50.3796 223.011 51.8225 223.011ZM59.7563 224.139C58.2549 224.139 57.1196 223.231 57.1196 221.795V221.781C57.1196 220.375 58.1596 219.562 59.998 219.452L62.2612 219.312V218.595C62.2612 217.621 61.6679 217.093 60.4888 217.093C59.5439 217.093 58.9214 217.445 58.7163 218.06L58.709 218.082H57.4346L57.4419 218.038C57.647 216.8 58.8481 215.965 60.5327 215.965C62.459 215.965 63.5356 216.954 63.5356 218.595V224H62.2612V222.835H62.144C61.646 223.678 60.8183 224.139 59.7563 224.139ZM58.4233 221.766C58.4233 222.564 59.1045 223.033 60.02 223.033C61.3164 223.033 62.2612 222.184 62.2612 221.056V220.338L60.1518 220.47C58.9507 220.543 58.4233 220.968 58.4233 221.751V221.766ZM69.7646 224V213.431H71.2954L74.9135 222.25H75.0307L78.6489 213.431H80.1796V224H78.9492V215.929H78.8686L75.5288 224H74.4155L71.0756 215.929H70.9951V224H69.7646ZM85.1179 224.139C83.3234 224.139 82.4006 223.084 82.4006 221.217V216.104H83.675V220.909C83.675 222.33 84.1877 223.011 85.4475 223.011C86.8391 223.011 87.5788 222.162 87.5788 220.777V216.104H88.8532V224H87.5788V222.821H87.4616C87.0734 223.663 86.2751 224.139 85.1179 224.139ZM93.7036 224.139C91.9457 224.139 90.7372 223.29 90.5908 221.986H91.8945C92.1069 222.645 92.7368 223.077 93.7475 223.077C94.8095 223.077 95.5639 222.572 95.5639 221.854V221.839C95.5639 221.305 95.1611 220.931 94.187 220.697L92.9638 220.404C91.4843 220.052 90.8178 219.408 90.8178 218.272V218.265C90.8178 216.954 92.0776 215.965 93.7548 215.965C95.4101 215.965 96.56 216.793 96.7358 218.082H95.4833C95.3149 217.459 94.6996 217.027 93.7475 217.027C92.81 217.027 92.1215 217.511 92.1215 218.207V218.221C92.1215 218.756 92.517 219.093 93.4472 219.32L94.663 219.613C96.1498 219.972 96.8676 220.616 96.8676 221.744V221.759C96.8676 223.165 95.498 224.139 93.7036 224.139ZM101.337 224.059C99.7111 224.059 99.03 223.458 99.03 221.949V217.159H97.7848V216.104H99.03V214.061H100.348V216.104H102.077V217.159H100.348V221.627C100.348 222.557 100.671 222.931 101.491 222.931C101.718 222.931 101.842 222.923 102.077 222.901V223.985C101.828 224.029 101.586 224.059 101.337 224.059ZM106.847 224.139C104.591 224.139 103.228 222.557 103.228 220.082V220.074C103.228 217.635 104.62 215.965 106.766 215.965C108.912 215.965 110.216 217.562 110.216 219.92V220.418H104.532C104.569 222.052 105.47 223.004 106.876 223.004C107.945 223.004 108.604 222.499 108.817 222.022L108.846 221.957H110.121L110.106 222.015C109.835 223.084 108.707 224.139 106.847 224.139ZM106.759 217.101C105.587 217.101 104.693 217.899 104.554 219.4H108.919C108.788 217.84 107.923 217.101 106.759 217.101ZM111.953 224V216.104H113.228V217.276H113.345C113.645 216.449 114.385 215.965 115.454 215.965C115.696 215.965 115.967 215.995 116.091 216.017V217.254C115.828 217.21 115.586 217.181 115.308 217.181C114.092 217.181 113.228 217.95 113.228 219.107V224H111.953Z" fill="#616161"/>
<g clip-path="url(#clip1_8956_12591)">
<rect x="38" y="261" width="343" height="28" rx="9" fill="#767680" fill-opacity="0.12"/>
<path d="M100.166 280.216C99.408 280.216 98.7563 280.074 98.2104 279.791C97.6688 279.507 97.252 279.113 96.96 278.61C96.668 278.102 96.522 277.516 96.522 276.852V270.84H97.6646V276.775C97.6646 277.245 97.7619 277.66 97.9565 278.02C98.1554 278.375 98.4411 278.654 98.8135 278.857C99.1859 279.061 99.6366 279.162 100.166 279.162C100.694 279.162 101.143 279.061 101.511 278.857C101.884 278.654 102.167 278.375 102.362 278.02C102.556 277.66 102.654 277.245 102.654 276.775V270.84H103.796V276.852C103.796 277.516 103.65 278.102 103.358 278.61C103.071 279.113 102.656 279.507 102.114 279.791C101.573 280.074 100.923 280.216 100.166 280.216ZM98.8135 269.545C98.6273 269.545 98.4665 269.478 98.3311 269.342C98.1956 269.207 98.1279 269.044 98.1279 268.854C98.1279 268.667 98.1956 268.507 98.3311 268.371C98.4665 268.236 98.6273 268.168 98.8135 268.168C98.9997 268.168 99.1605 268.236 99.2959 268.371C99.4313 268.507 99.499 268.667 99.499 268.854C99.499 269.044 99.4313 269.207 99.2959 269.342C99.1605 269.478 98.9997 269.545 98.8135 269.545ZM101.505 269.545C101.319 269.545 101.158 269.478 101.022 269.342C100.887 269.207 100.819 269.044 100.819 268.854C100.819 268.667 100.887 268.507 101.022 268.371C101.158 268.236 101.319 268.168 101.505 268.168C101.691 268.168 101.852 268.236 101.987 268.371C102.123 268.507 102.19 268.667 102.19 268.854C102.19 269.044 102.123 269.207 101.987 269.342C101.852 269.478 101.691 269.545 101.505 269.545ZM109.382 280.121C109.065 280.121 108.771 280.072 108.5 279.975C108.229 279.877 107.988 279.74 107.776 279.562C107.565 279.38 107.389 279.162 107.25 278.908H107.148V280H106.043V270.44H107.148V274.236H107.25C107.376 273.991 107.546 273.779 107.757 273.602C107.973 273.424 108.219 273.286 108.494 273.189C108.773 273.087 109.069 273.037 109.382 273.037C109.962 273.037 110.466 273.183 110.893 273.475C111.325 273.767 111.659 274.177 111.896 274.706C112.133 275.235 112.251 275.857 112.251 276.572V276.585C112.251 277.296 112.133 277.918 111.896 278.451C111.659 278.98 111.325 279.391 110.893 279.683C110.466 279.975 109.962 280.121 109.382 280.121ZM109.128 279.143C109.547 279.143 109.905 279.042 110.201 278.838C110.497 278.631 110.724 278.337 110.88 277.956C111.041 277.571 111.122 277.114 111.122 276.585V276.572C111.122 276.039 111.041 275.582 110.88 275.201C110.724 274.82 110.497 274.528 110.201 274.325C109.905 274.118 109.547 274.014 109.128 274.014C108.714 274.014 108.356 274.118 108.056 274.325C107.755 274.533 107.525 274.827 107.364 275.208C107.203 275.588 107.123 276.043 107.123 276.572V276.585C107.123 277.11 107.203 277.565 107.364 277.95C107.525 278.331 107.755 278.625 108.056 278.832C108.356 279.039 108.714 279.143 109.128 279.143ZM116.758 280.121C116.107 280.121 115.546 279.977 115.076 279.689C114.611 279.401 114.251 278.995 113.997 278.47C113.747 277.941 113.623 277.319 113.623 276.604V276.598C113.623 275.891 113.747 275.271 113.997 274.738C114.251 274.205 114.609 273.788 115.07 273.487C115.531 273.187 116.071 273.037 116.688 273.037C117.311 273.037 117.844 273.181 118.288 273.468C118.737 273.756 119.079 274.158 119.316 274.674C119.558 275.186 119.678 275.783 119.678 276.464V276.896H114.194V276.014H119.113L118.567 276.82V276.382C118.567 275.844 118.487 275.402 118.326 275.055C118.165 274.708 117.943 274.45 117.66 274.281C117.376 274.107 117.05 274.021 116.682 274.021C116.314 274.021 115.984 274.111 115.692 274.293C115.404 274.471 115.176 274.736 115.006 275.087C114.837 275.438 114.752 275.87 114.752 276.382V276.82C114.752 277.306 114.835 277.723 115 278.07C115.165 278.413 115.4 278.678 115.705 278.864C116.009 279.046 116.369 279.137 116.784 279.137C117.093 279.137 117.361 279.094 117.59 279.01C117.818 278.925 118.007 278.817 118.155 278.686C118.303 278.555 118.407 278.422 118.466 278.286L118.491 278.229H119.596L119.583 278.28C119.524 278.513 119.418 278.739 119.266 278.959C119.118 279.175 118.925 279.372 118.688 279.549C118.451 279.723 118.17 279.862 117.844 279.968C117.522 280.07 117.16 280.121 116.758 280.121ZM121.392 280V273.157H122.497V274.173H122.598C122.729 273.813 122.951 273.534 123.265 273.335C123.578 273.136 123.965 273.037 124.426 273.037C124.532 273.037 124.636 273.043 124.737 273.056C124.843 273.064 124.924 273.073 124.979 273.081V274.154C124.864 274.133 124.752 274.118 124.642 274.109C124.536 274.097 124.422 274.09 124.299 274.09C123.948 274.09 123.637 274.16 123.366 274.3C123.095 274.439 122.882 274.634 122.725 274.884C122.573 275.133 122.497 275.425 122.497 275.76V280H121.392ZM129.746 280.121C129.428 280.121 129.134 280.072 128.863 279.975C128.592 279.877 128.351 279.74 128.14 279.562C127.928 279.38 127.752 279.162 127.613 278.908H127.511V280H126.407V270.44H127.511V274.236H127.613C127.74 273.991 127.909 273.779 128.121 273.602C128.336 273.424 128.582 273.286 128.857 273.189C129.136 273.087 129.432 273.037 129.746 273.037C130.325 273.037 130.829 273.183 131.256 273.475C131.688 273.767 132.022 274.177 132.259 274.706C132.496 275.235 132.615 275.857 132.615 276.572V276.585C132.615 277.296 132.496 277.918 132.259 278.451C132.022 278.98 131.688 279.391 131.256 279.683C130.829 279.975 130.325 280.121 129.746 280.121ZM129.492 279.143C129.911 279.143 130.268 279.042 130.564 278.838C130.861 278.631 131.087 278.337 131.244 277.956C131.404 277.571 131.485 277.114 131.485 276.585V276.572C131.485 276.039 131.404 275.582 131.244 275.201C131.087 274.82 130.861 274.528 130.564 274.325C130.268 274.118 129.911 274.014 129.492 274.014C129.077 274.014 128.719 274.118 128.419 274.325C128.118 274.533 127.888 274.827 127.727 275.208C127.566 275.588 127.486 276.043 127.486 276.572V276.585C127.486 277.11 127.566 277.565 127.727 277.95C127.888 278.331 128.118 278.625 128.419 278.832C128.719 279.039 129.077 279.143 129.492 279.143ZM134.392 280V270.44H135.497V280H134.392ZM137.642 280V273.157H138.747V280H137.642ZM138.201 271.837C137.993 271.837 137.813 271.763 137.661 271.615C137.513 271.462 137.439 271.283 137.439 271.075C137.439 270.864 137.513 270.684 137.661 270.536C137.813 270.388 137.993 270.313 138.201 270.313C138.412 270.313 138.592 270.388 138.74 270.536C138.888 270.684 138.962 270.864 138.962 271.075C138.962 271.283 138.888 271.462 138.74 271.615C138.592 271.763 138.412 271.837 138.201 271.837ZM143.628 280.121C142.989 280.121 142.435 279.975 141.965 279.683C141.495 279.391 141.131 278.978 140.873 278.445C140.615 277.912 140.486 277.283 140.486 276.56V276.547C140.486 275.836 140.613 275.218 140.867 274.693C141.125 274.169 141.489 273.762 141.958 273.475C142.428 273.183 142.983 273.037 143.622 273.037C144.176 273.037 144.654 273.134 145.056 273.329C145.458 273.523 145.78 273.786 146.021 274.116C146.262 274.442 146.417 274.808 146.484 275.214L146.491 275.252H145.393L145.386 275.233C145.302 274.894 145.109 274.607 144.809 274.37C144.508 274.133 144.112 274.014 143.622 274.014C143.211 274.014 142.856 274.118 142.555 274.325C142.255 274.533 142.022 274.827 141.857 275.208C141.696 275.584 141.616 276.031 141.616 276.547V276.56C141.616 277.084 141.698 277.541 141.863 277.931C142.028 278.316 142.261 278.614 142.562 278.826C142.862 279.037 143.215 279.143 143.622 279.143C144.083 279.143 144.459 279.044 144.751 278.845C145.043 278.646 145.253 278.356 145.38 277.975L145.393 277.937L146.484 277.931L146.472 278C146.379 278.411 146.214 278.777 145.977 279.099C145.74 279.416 145.426 279.666 145.037 279.848C144.648 280.03 144.178 280.121 143.628 280.121ZM148.167 280V270.44H149.271V280H148.167ZM152.477 280L149.804 276.648L150.617 275.944L153.867 280H152.477ZM149.131 277.537L149.081 276.147H149.373L152.331 273.157H153.67L150.42 276.293L150.153 276.553L149.131 277.537Z" fill="black"/>
<g filter="url(#filter0_dd_8956_12591)">
<rect x="209.5" y="263" width="169.5" height="24" rx="7" fill="white"/>
<rect x="209.25" y="262.75" width="170" height="24.5" rx="7.25" stroke="black" stroke-opacity="0.04" stroke-width="0.5"/>
<path d="M273.258 280V270.84H276.692C277.602 270.84 278.377 271.018 279.016 271.374C279.659 271.729 280.15 272.245 280.488 272.922C280.831 273.599 281.002 274.416 281.002 275.373V275.385C281.002 276.363 280.833 277.196 280.495 277.886C280.156 278.572 279.665 279.097 279.022 279.46C278.383 279.82 277.606 280 276.692 280H273.258ZM274.896 278.623H276.477C277.082 278.623 277.598 278.498 278.025 278.248C278.453 277.998 278.777 277.634 278.997 277.156C279.221 276.678 279.333 276.096 279.333 275.411V275.398C279.333 274.729 279.219 274.158 278.99 273.684C278.766 273.206 278.44 272.842 278.013 272.592C277.585 272.343 277.073 272.218 276.477 272.218H274.896V278.623ZM285.687 280.14C284.997 280.14 284.405 279.994 283.91 279.702C283.419 279.41 283.04 278.995 282.773 278.458C282.507 277.92 282.374 277.283 282.374 276.547V276.541C282.374 275.813 282.505 275.178 282.767 274.636C283.034 274.095 283.41 273.676 283.897 273.379C284.384 273.079 284.955 272.929 285.611 272.929C286.271 272.929 286.838 273.075 287.312 273.367C287.79 273.654 288.158 274.059 288.417 274.579C288.675 275.1 288.804 275.709 288.804 276.407V276.928H283.167V275.868H288.029L287.28 276.858V276.229C287.28 275.768 287.21 275.385 287.071 275.081C286.931 274.776 286.736 274.547 286.487 274.395C286.241 274.243 285.956 274.167 285.63 274.167C285.304 274.167 285.014 274.247 284.76 274.408C284.511 274.564 284.312 274.797 284.164 275.106C284.02 275.411 283.948 275.785 283.948 276.229V276.864C283.948 277.292 284.02 277.658 284.164 277.962C284.307 278.263 284.511 278.496 284.773 278.661C285.04 278.821 285.355 278.902 285.719 278.902C286.002 278.902 286.246 278.862 286.449 278.781C286.656 278.697 286.823 278.597 286.95 278.483C287.077 278.364 287.166 278.252 287.217 278.146L287.236 278.102H288.734L288.721 278.159C288.666 278.383 288.565 278.612 288.417 278.845C288.273 279.073 288.076 279.287 287.826 279.486C287.581 279.681 287.28 279.839 286.925 279.962C286.569 280.08 286.157 280.14 285.687 280.14ZM293.114 280.032C292.318 280.032 291.745 279.886 291.394 279.594C291.042 279.302 290.867 278.824 290.867 278.159V274.287H289.788V273.062H290.867V271.361H292.473V273.062H293.933V274.287H292.473V277.785C292.473 278.127 292.545 278.379 292.688 278.54C292.837 278.697 293.074 278.775 293.399 278.775C293.514 278.775 293.607 278.773 293.679 278.769C293.755 278.76 293.84 278.752 293.933 278.743V279.962C293.823 279.983 293.696 280 293.552 280.013C293.412 280.025 293.266 280.032 293.114 280.032ZM297.405 280.114C296.969 280.114 296.577 280.03 296.23 279.86C295.888 279.691 295.617 279.452 295.418 279.143C295.223 278.83 295.126 278.462 295.126 278.039V278.026C295.126 277.615 295.228 277.262 295.431 276.966C295.634 276.665 295.932 276.431 296.326 276.261C296.719 276.092 297.197 275.993 297.76 275.963L300.325 275.804V276.845L297.982 276.998C297.538 277.023 297.21 277.116 296.999 277.277C296.787 277.438 296.681 277.662 296.681 277.95V277.962C296.681 278.259 296.793 278.489 297.018 278.654C297.246 278.819 297.536 278.902 297.887 278.902C298.205 278.902 298.488 278.838 298.738 278.711C298.987 278.584 299.184 278.413 299.328 278.197C299.472 277.977 299.544 277.73 299.544 277.455V275.258C299.544 274.911 299.434 274.647 299.214 274.465C298.994 274.279 298.668 274.186 298.236 274.186C297.877 274.186 297.583 274.249 297.354 274.376C297.125 274.499 296.971 274.674 296.891 274.903L296.884 274.928H295.393L295.399 274.871C295.45 274.482 295.602 274.141 295.856 273.849C296.11 273.557 296.446 273.331 296.865 273.17C297.284 273.009 297.767 272.929 298.312 272.929C298.913 272.929 299.421 273.022 299.836 273.208C300.251 273.39 300.566 273.657 300.782 274.008C300.998 274.355 301.105 274.772 301.105 275.258V280H299.544V279.048H299.436C299.309 279.268 299.144 279.458 298.941 279.619C298.742 279.78 298.514 279.903 298.255 279.987C297.997 280.072 297.714 280.114 297.405 280.114ZM303.022 280V273.062H304.597V280H303.022ZM303.816 271.9C303.558 271.9 303.336 271.809 303.149 271.627C302.963 271.445 302.87 271.228 302.87 270.974C302.87 270.711 302.963 270.491 303.149 270.313C303.336 270.132 303.558 270.041 303.816 270.041C304.074 270.041 304.294 270.132 304.476 270.313C304.662 270.491 304.755 270.711 304.755 270.974C304.755 271.228 304.662 271.445 304.476 271.627C304.294 271.809 304.074 271.9 303.816 271.9ZM306.609 280V270.377H308.189V280H306.609ZM312.798 280.14C312.21 280.14 311.702 280.057 311.274 279.892C310.851 279.723 310.517 279.49 310.271 279.194C310.026 278.893 309.88 278.546 309.833 278.153V278.14H311.401L311.408 278.153C311.492 278.394 311.651 278.591 311.884 278.743C312.117 278.896 312.43 278.972 312.823 278.972C313.086 278.972 313.316 278.936 313.515 278.864C313.714 278.788 313.871 278.684 313.985 278.553C314.099 278.422 314.156 278.269 314.156 278.096V278.083C314.156 277.88 314.074 277.711 313.909 277.575C313.744 277.436 313.471 277.323 313.09 277.239L311.966 276.985C311.526 276.888 311.162 276.752 310.875 276.579C310.587 276.405 310.371 276.191 310.227 275.938C310.087 275.684 310.018 275.387 310.018 275.049V275.042C310.018 274.624 310.134 274.255 310.367 273.938C310.604 273.621 310.932 273.373 311.351 273.195C311.77 273.018 312.252 272.929 312.798 272.929C313.361 272.929 313.845 273.013 314.251 273.183C314.658 273.352 314.975 273.585 315.204 273.881C315.432 274.177 315.563 274.514 315.597 274.89V274.903H314.112L314.105 274.884C314.046 274.664 313.904 274.478 313.68 274.325C313.46 274.169 313.164 274.09 312.792 274.09C312.559 274.09 312.349 274.126 312.163 274.198C311.981 274.27 311.837 274.372 311.731 274.503C311.63 274.63 311.579 274.78 311.579 274.954V274.96C311.579 275.095 311.613 275.214 311.681 275.315C311.753 275.417 311.865 275.506 312.017 275.582C312.169 275.658 312.37 275.726 312.62 275.785L313.744 276.033C314.425 276.185 314.929 276.411 315.254 276.712C315.58 277.012 315.743 277.417 315.743 277.924V277.937C315.743 278.377 315.616 278.762 315.362 279.092C315.108 279.422 314.759 279.681 314.315 279.867C313.871 280.049 313.365 280.14 312.798 280.14Z" fill="black"/>
</g>
</g>
<g clip-path="url(#clip2_8956_12591)">
<path d="M39.5273 334V322.022H41.0215V327.841H41.1543L46.4004 322.022H48.2764L43.4868 327.193L48.7163 334H46.7822L42.4575 328.231L41.0215 329.816V334H39.5273ZM53.156 334.158C50.6076 334.158 49.0305 332.398 49.0305 329.534V329.518C49.0305 326.646 50.6076 324.894 53.156 324.894C55.7043 324.894 57.2815 326.646 57.2815 329.518V329.534C57.2815 332.398 55.7043 334.158 53.156 334.158ZM53.156 332.879C54.8493 332.879 55.8039 331.643 55.8039 329.534V329.518C55.8039 327.401 54.8493 326.172 53.156 326.172C51.4626 326.172 50.508 327.401 50.508 329.518V329.534C50.508 331.643 51.4626 332.879 53.156 332.879ZM62.186 334.158C60.1938 334.158 58.8241 333.195 58.6581 331.717H60.1357C60.3764 332.464 61.0903 332.954 62.2358 332.954C63.4394 332.954 64.2944 332.381 64.2944 331.568V331.551C64.2944 330.945 63.8378 330.522 62.7338 330.256L61.3476 329.924C59.6708 329.526 58.9154 328.795 58.9154 327.509V327.5C58.9154 326.015 60.3432 324.894 62.2441 324.894C64.12 324.894 65.4233 325.832 65.6225 327.293H64.203C64.0121 326.587 63.3149 326.098 62.2358 326.098C61.1733 326.098 60.393 326.646 60.393 327.434V327.451C60.393 328.057 60.8412 328.438 61.8954 328.696L63.2734 329.028C64.9584 329.435 65.7719 330.165 65.7719 331.443V331.46C65.7719 333.054 64.2196 334.158 62.186 334.158ZM70.7013 334.066C68.8585 334.066 68.0865 333.386 68.0865 331.676V326.247H66.6754V325.052H68.0865V322.736H69.5807V325.052H71.5397V326.247H69.5807V331.311C69.5807 332.365 69.9459 332.788 70.8756 332.788C71.1329 332.788 71.274 332.78 71.5397 332.755V333.983C71.2574 334.033 70.9835 334.066 70.7013 334.066ZM76.826 334.158C74.2694 334.158 72.7254 332.365 72.7254 329.559V329.551C72.7254 326.787 74.3026 324.894 76.7347 324.894C79.1668 324.894 80.6444 326.704 80.6444 329.376V329.941H74.203C74.2445 331.792 75.2655 332.871 76.8592 332.871C78.0711 332.871 78.8182 332.298 79.0589 331.759L79.0921 331.684H80.5365L80.5199 331.75C80.2127 332.962 78.9344 334.158 76.826 334.158ZM76.7264 326.181C75.3983 326.181 74.3856 327.085 74.2279 328.787H79.1751C79.0257 327.019 78.0462 326.181 76.7264 326.181ZM82.4776 334V325.052H83.9219V326.396H84.0547C84.503 325.45 85.3413 324.894 86.6612 324.894C88.67 324.894 89.7906 326.081 89.7906 328.206V334H88.3462V328.555C88.3462 326.944 87.6822 326.172 86.2544 326.172C84.8267 326.172 83.9219 327.135 83.9219 328.704V334H82.4776ZM100.031 334.224C97.6489 334.224 95.9804 332.813 95.9804 330.812V330.796C95.9804 329.343 96.769 328.239 98.3877 327.442L98.8276 327.227C97.707 325.981 97.3169 325.251 97.3169 324.429V324.413C97.3169 322.885 98.6201 321.74 100.372 321.74C102.14 321.74 103.426 322.869 103.426 324.429V324.446C103.426 325.625 102.737 326.521 100.836 327.534L103.775 330.671C104.198 329.792 104.397 328.704 104.397 327.534V327.326H105.792V327.542C105.792 329.177 105.468 330.63 104.796 331.759L106.888 333.992V334H105.012L103.949 332.83C103.019 333.709 101.725 334.224 100.031 334.224ZM98.7446 324.512C98.7446 325.135 99.0849 325.649 100.04 326.687C101.542 325.907 102.023 325.301 102.023 324.496V324.479C102.023 323.558 101.351 322.927 100.38 322.927C99.4253 322.927 98.7446 323.574 98.7446 324.496V324.512ZM97.4746 330.713C97.4746 332.049 98.562 332.962 100.164 332.962C101.384 332.962 102.331 332.531 103.011 331.809L99.6494 328.131L99.2509 328.322C98.1054 328.87 97.4746 329.708 97.4746 330.696V330.713ZM115.061 320.329C114.572 320.329 114.165 319.922 114.165 319.424C114.165 318.934 114.572 318.527 115.061 318.527C115.551 318.527 115.958 318.934 115.958 319.424C115.958 319.922 115.551 320.329 115.061 320.329ZM118.581 320.329C118.091 320.329 117.684 319.922 117.684 319.424C117.684 318.934 118.091 318.527 118.581 318.527C119.071 318.527 119.477 318.934 119.477 319.424C119.477 319.922 119.071 320.329 118.581 320.329ZM111.666 334L116.082 322.022H117.56L121.976 334H120.407L119.203 330.572H114.439L113.235 334H111.666ZM116.755 323.956L114.879 329.302H118.764L116.888 323.956H116.755ZM123.485 334V325.052H124.93V326.38H125.063C125.403 325.442 126.241 324.894 127.453 324.894C127.727 324.894 128.034 324.927 128.175 324.952V326.355C127.877 326.305 127.603 326.272 127.287 326.272C125.909 326.272 124.93 327.144 124.93 328.455V334H123.485ZM129.345 334V332.954L134.508 326.38V326.247H129.353V325.052H136.209V326.123L131.071 332.672V332.805H136.234V334H129.345ZM141.487 334.066C139.645 334.066 138.873 333.386 138.873 331.676V326.247H137.461V325.052H138.873V322.736H140.367V325.052H142.326V326.247H140.367V331.311C140.367 332.365 140.732 332.788 141.662 332.788C141.919 332.788 142.06 332.78 142.326 332.755V333.983C142.043 334.033 141.77 334.066 141.487 334.066ZM144.159 334V321.499H145.603V334H144.159ZM148.731 323.325C148.184 323.325 147.735 322.877 147.735 322.329C147.735 321.781 148.184 321.333 148.731 321.333C149.279 321.333 149.727 321.781 149.727 322.329C149.727 322.877 149.279 323.325 148.731 323.325ZM148.001 334V325.052H149.445V334H148.001ZM155.421 334.158C152.914 334.158 151.312 332.34 151.312 329.501V329.484C151.312 326.704 152.905 324.894 155.412 324.894C157.587 324.894 158.89 326.147 159.156 327.741L159.164 327.791H157.728L157.72 327.766C157.496 326.886 156.699 326.172 155.412 326.172C153.802 326.172 152.789 327.467 152.789 329.484V329.501C152.789 331.56 153.818 332.879 155.412 332.879C156.616 332.879 157.38 332.348 157.712 331.352L157.728 331.302L159.156 331.294L159.139 331.385C158.774 333.004 157.57 334.158 155.421 334.158ZM160.948 334V321.499H162.392V326.396H162.525C162.973 325.45 163.811 324.894 165.131 324.894C167.14 324.894 168.261 326.081 168.261 328.206V334H166.816V328.555C166.816 326.944 166.152 326.172 164.724 326.172C163.297 326.172 162.392 327.135 162.392 328.704V334H160.948ZM174.12 334.158C171.563 334.158 170.019 332.365 170.019 329.559V329.551C170.019 326.787 171.596 324.894 174.028 324.894C176.46 324.894 177.938 326.704 177.938 329.376V329.941H171.497C171.538 331.792 172.559 332.871 174.153 332.871C175.365 332.871 176.112 332.298 176.353 331.759L176.386 331.684H177.83L177.814 331.75C177.506 332.962 176.228 334.158 174.12 334.158ZM174.02 326.181C172.692 326.181 171.679 327.085 171.522 328.787H176.469C176.319 327.019 175.34 326.181 174.02 326.181ZM184.327 334V322.022H188.909C191.109 322.022 192.454 323.176 192.454 325.002V325.019C192.454 326.255 191.54 327.384 190.387 327.592V327.725C192.022 327.932 193.06 329.053 193.06 330.63V330.646C193.06 332.747 191.549 334 189 334H184.327ZM188.594 323.342H185.821V327.185H188.212C190.021 327.185 190.943 326.538 190.943 325.276V325.259C190.943 324.047 190.08 323.342 188.594 323.342ZM188.635 328.472H185.821V332.68H188.776C190.578 332.68 191.524 331.95 191.524 330.572V330.555C191.524 329.177 190.544 328.472 188.635 328.472ZM198.562 334.158C196.005 334.158 194.461 332.365 194.461 329.559V329.551C194.461 326.787 196.038 324.894 198.47 324.894C200.902 324.894 202.38 326.704 202.38 329.376V329.941H195.939C195.98 331.792 197.001 332.871 198.595 332.871C199.807 332.871 200.554 332.298 200.795 331.759L200.828 331.684H202.272L202.256 331.75C201.948 332.962 200.67 334.158 198.562 334.158ZM198.462 326.181C197.134 326.181 196.121 327.085 195.964 328.787H200.911C200.761 327.019 199.782 326.181 198.462 326.181ZM204.296 334V321.499H205.741V326.396H205.873C206.322 325.45 207.16 324.894 208.48 324.894C210.489 324.894 211.609 326.081 211.609 328.206V334H210.165V328.555C210.165 326.944 209.501 326.172 208.073 326.172C206.645 326.172 205.741 327.135 205.741 328.704V334H204.296ZM216.273 334.158C214.571 334.158 213.285 333.128 213.285 331.501V331.485C213.285 329.891 214.463 328.97 216.547 328.845L219.112 328.688V327.874C219.112 326.77 218.44 326.172 217.103 326.172C216.032 326.172 215.327 326.571 215.094 327.268L215.086 327.293H213.642L213.65 327.243C213.882 325.84 215.244 324.894 217.153 324.894C219.336 324.894 220.556 326.015 220.556 327.874V334H219.112V332.68H218.979C218.415 333.635 217.477 334.158 216.273 334.158ZM214.762 331.468C214.762 332.373 215.534 332.904 216.572 332.904C218.041 332.904 219.112 331.941 219.112 330.663V329.85L216.721 329.999C215.36 330.082 214.762 330.563 214.762 331.452V331.468ZM222.788 334V325.052H224.232V326.396H224.365C224.813 325.45 225.652 324.894 226.971 324.894C228.98 324.894 230.101 326.081 230.101 328.206V334H228.657V328.555C228.657 326.944 227.992 326.172 226.565 326.172C225.137 326.172 224.232 327.135 224.232 328.704V334H222.788ZM235.611 334.158C233.345 334.158 231.859 332.323 231.859 329.534V329.518C231.859 326.712 233.337 324.894 235.611 324.894C236.84 324.894 237.911 325.508 238.4 326.463H238.533V321.499H239.978V334H238.533V332.572H238.4C237.853 333.568 236.856 334.158 235.611 334.158ZM235.943 332.879C237.57 332.879 238.566 331.601 238.566 329.534V329.518C238.566 327.451 237.57 326.172 235.943 326.172C234.308 326.172 233.337 327.434 233.337 329.518V329.534C233.337 331.618 234.308 332.879 235.943 332.879ZM242.425 334V321.499H243.869V334H242.425ZM249.23 334.158C247.197 334.158 246.151 332.962 246.151 330.846V325.052H247.595V330.497C247.595 332.107 248.176 332.879 249.604 332.879C251.181 332.879 252.019 331.917 252.019 330.348V325.052H253.464V334H252.019V332.664H251.887C251.447 333.618 250.542 334.158 249.23 334.158ZM255.754 334V325.052H257.198V326.396H257.331C257.779 325.45 258.617 324.894 259.937 324.894C261.946 324.894 263.067 326.081 263.067 328.206V334H261.622V328.555C261.622 326.944 260.958 326.172 259.53 326.172C258.103 326.172 257.198 327.135 257.198 328.704V334H255.754ZM268.959 337.154C266.801 337.154 265.423 336.183 265.199 334.714L265.215 334.706H266.709L266.718 334.714C266.875 335.395 267.672 335.876 268.959 335.876C270.561 335.876 271.515 335.121 271.515 333.801V331.991H271.383C270.818 332.979 269.805 333.535 268.577 333.535C266.261 333.535 264.825 331.742 264.825 329.235V329.219C264.825 326.712 266.269 324.894 268.61 324.894C269.872 324.894 270.851 325.517 271.399 326.529H271.499V325.052H272.943V333.875C272.943 335.876 271.399 337.154 268.959 337.154ZM268.892 332.257C270.553 332.257 271.549 331.012 271.549 329.235V329.219C271.549 327.442 270.544 326.172 268.892 326.172C267.232 326.172 266.303 327.442 266.303 329.219V329.235C266.303 331.012 267.232 332.257 268.892 332.257Z" fill="black"/>
<path d="M375.462 328.007C375.462 328.347 375.346 328.629 375.072 328.895L368.68 335.146C368.464 335.361 368.207 335.469 367.9 335.469C367.277 335.469 366.771 334.971 366.771 334.349C366.771 334.033 366.904 333.759 367.128 333.535L372.806 327.999L367.128 322.479C366.904 322.254 366.771 321.972 366.771 321.665C366.771 321.042 367.277 320.553 367.9 320.553C368.207 320.553 368.464 320.652 368.68 320.868L375.072 327.119C375.337 327.384 375.462 327.667 375.462 328.007Z" fill="#616161"/>
<rect x="38" y="350.5" width="359" height="0.5" fill="#C6C6C8"/>
</g>
<g clip-path="url(#clip3_8956_12591)">
<path d="M39.1953 380V378.938L45.9771 369.5V369.367H39.4277V368.022H47.9111V369.084L41.1626 378.522V378.655H48.0522V380H39.1953ZM52.6496 380.158C50.948 380.158 49.6613 379.128 49.6613 377.501V377.485C49.6613 375.891 50.84 374.97 52.9235 374.845L55.4885 374.688V373.874C55.4885 372.77 54.8161 372.172 53.4797 372.172C52.4089 372.172 51.7033 372.571 51.4709 373.268L51.4626 373.293H50.0183L50.0266 373.243C50.259 371.84 51.6203 370.894 53.5295 370.894C55.7126 370.894 56.9328 372.015 56.9328 373.874V380H55.4885V378.68H55.3557C54.7912 379.635 53.8532 380.158 52.6496 380.158ZM51.1389 377.468C51.1389 378.373 51.9108 378.904 52.9484 378.904C54.4177 378.904 55.4885 377.941 55.4885 376.663V375.85L53.0979 375.999C51.7365 376.082 51.1389 376.563 51.1389 377.452V377.468ZM59.2475 380V367.499H60.6918V372.396H60.8246C61.2729 371.45 62.1112 370.894 63.4311 370.894C65.4399 370.894 66.5605 372.081 66.5605 374.206V380H65.1161V374.555C65.1161 372.944 64.4521 372.172 63.0243 372.172C61.5966 372.172 60.6918 373.135 60.6918 374.704V380H59.2475ZM68.8502 380V367.499H70.2946V380H68.8502ZM75.6556 380.158C73.6219 380.158 72.576 378.962 72.576 376.846V371.052H74.0203V376.497C74.0203 378.107 74.6014 378.879 76.0291 378.879C77.6063 378.879 78.4447 377.917 78.4447 376.348V371.052H79.889V380H78.4447V378.664H78.3118C77.8719 379.618 76.9671 380.158 75.6556 380.158ZM82.1787 380V371.052H83.6231V372.396H83.7559C84.2041 371.45 85.0425 370.894 86.3623 370.894C88.3711 370.894 89.4917 372.081 89.4917 374.206V380H88.0474V374.555C88.0474 372.944 87.3833 372.172 85.9556 372.172C84.5279 372.172 83.6231 373.135 83.6231 374.704V380H82.1787ZM95.384 383.154C93.2258 383.154 91.8479 382.183 91.6238 380.714L91.6404 380.706H93.1345L93.1428 380.714C93.3005 381.395 94.0974 381.876 95.384 381.876C96.9861 381.876 97.9407 381.121 97.9407 379.801V377.991H97.8079C97.2434 378.979 96.2307 379.535 95.0022 379.535C92.6863 379.535 91.2502 377.742 91.2502 375.235V375.219C91.2502 372.712 92.6946 370.894 95.0354 370.894C96.2971 370.894 97.2766 371.517 97.8245 372.529H97.9241V371.052H99.3684V379.875C99.3684 381.876 97.8245 383.154 95.384 383.154ZM95.3176 378.257C96.9778 378.257 97.9739 377.012 97.9739 375.235V375.219C97.9739 373.442 96.9695 372.172 95.3176 372.172C93.6575 372.172 92.7278 373.442 92.7278 375.219V375.235C92.7278 377.012 93.6575 378.257 95.3176 378.257ZM104.721 380.158C102.729 380.158 101.359 379.195 101.193 377.717H102.671C102.912 378.464 103.625 378.954 104.771 378.954C105.975 378.954 106.83 378.381 106.83 377.568V377.551C106.83 376.945 106.373 376.522 105.269 376.256L103.883 375.924C102.206 375.526 101.451 374.795 101.451 373.509V373.5C101.451 372.015 102.878 370.894 104.779 370.894C106.655 370.894 107.958 371.832 108.158 373.293H106.738C106.547 372.587 105.85 372.098 104.771 372.098C103.708 372.098 102.928 372.646 102.928 373.434V373.451C102.928 374.057 103.376 374.438 104.431 374.696L105.809 375.028C107.494 375.435 108.307 376.165 108.307 377.443V377.46C108.307 379.054 106.755 380.158 104.721 380.158ZM113.444 380.158C111.178 380.158 109.692 378.323 109.692 375.534V375.518C109.692 372.712 111.17 370.894 113.444 370.894C114.673 370.894 115.743 371.508 116.233 372.463H116.366V367.499H117.81V380H116.366V378.572H116.233C115.685 379.568 114.689 380.158 113.444 380.158ZM113.776 378.879C115.403 378.879 116.399 377.601 116.399 375.534V375.518C116.399 373.451 115.403 372.172 113.776 372.172C112.141 372.172 111.17 373.434 111.17 375.518V375.534C111.17 377.618 112.141 378.879 113.776 378.879ZM122.632 380.158C120.93 380.158 119.643 379.128 119.643 377.501V377.485C119.643 375.891 120.822 374.97 122.906 374.845L125.471 374.688V373.874C125.471 372.77 124.798 372.172 123.462 372.172C122.391 372.172 121.685 372.571 121.453 373.268L121.445 373.293H120L120.009 373.243C120.241 371.84 121.602 370.894 123.512 370.894C125.695 370.894 126.915 372.015 126.915 373.874V380H125.471V378.68H125.338C124.773 379.635 123.835 380.158 122.632 380.158ZM121.121 377.468C121.121 378.373 121.893 378.904 122.931 378.904C124.4 378.904 125.471 377.941 125.471 376.663V375.85L123.08 375.999C121.719 376.082 121.121 376.563 121.121 377.452V377.468ZM132.326 380.066C130.483 380.066 129.711 379.386 129.711 377.676V372.247H128.3V371.052H129.711V368.736H131.205V371.052H133.164V372.247H131.205V377.311C131.205 378.365 131.57 378.788 132.5 378.788C132.757 378.788 132.899 378.78 133.164 378.755V379.983C132.882 380.033 132.608 380.066 132.326 380.066ZM138.45 380.158C135.894 380.158 134.35 378.365 134.35 375.559V375.551C134.35 372.787 135.927 370.894 138.359 370.894C140.791 370.894 142.269 372.704 142.269 375.376V375.941H135.827C135.869 377.792 136.89 378.871 138.484 378.871C139.696 378.871 140.443 378.298 140.683 377.759L140.717 377.684H142.161L142.144 377.75C141.837 378.962 140.559 380.158 138.45 380.158ZM138.351 372.181C137.023 372.181 136.01 373.085 135.852 374.787H140.8C140.65 373.019 139.671 372.181 138.351 372.181ZM144.102 380V371.052H145.546V372.396H145.679C146.127 371.45 146.966 370.894 148.286 370.894C150.294 370.894 151.415 372.081 151.415 374.206V380H149.971V374.555C149.971 372.944 149.307 372.172 147.879 372.172C146.451 372.172 145.546 373.135 145.546 374.704V380H144.102Z" fill="black"/>
<path d="M375.462 374.007C375.462 374.347 375.346 374.629 375.072 374.895L368.68 381.146C368.464 381.361 368.207 381.469 367.9 381.469C367.277 381.469 366.771 380.971 366.771 380.349C366.771 380.033 366.904 379.759 367.128 379.535L372.806 373.999L367.128 368.479C366.904 368.254 366.771 367.972 366.771 367.665C366.771 367.042 367.277 366.553 367.9 366.553C368.207 366.553 368.464 366.652 368.68 366.868L375.072 373.119C375.337 373.384 375.462 373.667 375.462 374.007Z" fill="#616161"/>
<rect x="38" y="396.5" width="359" height="0.5" fill="#C6C6C8"/>
</g>
<g clip-path="url(#clip4_8956_12591)">
<path d="M38.5728 426L42.9888 414.022H44.4663L48.8823 426H47.3135L46.1099 422.572H41.3452L40.1416 426H38.5728ZM43.6611 415.956L41.7852 421.302H45.6699L43.7939 415.956H43.6611ZM52.9733 426.158C50.9397 426.158 49.8938 424.962 49.8938 422.846V417.052H51.3381V422.497C51.3381 424.107 51.9191 424.879 53.3469 424.879C54.924 424.879 55.7624 423.917 55.7624 422.348V417.052H57.2067V426H55.7624V424.664H55.6296C55.1897 425.618 54.2849 426.158 52.9733 426.158ZM62.5678 426.158C60.5756 426.158 59.206 425.195 59.04 423.717H60.5175C60.7582 424.464 61.4721 424.954 62.6176 424.954C63.8212 424.954 64.6762 424.381 64.6762 423.568V423.551C64.6762 422.945 64.2196 422.522 63.1156 422.256L61.7294 421.924C60.0527 421.526 59.2973 420.795 59.2973 419.509V419.5C59.2973 418.015 60.725 416.894 62.6259 416.894C64.5019 416.894 65.8051 417.832 66.0043 419.293H64.5849C64.394 418.587 63.6967 418.098 62.6176 418.098C61.5551 418.098 60.7748 418.646 60.7748 419.434V419.451C60.7748 420.057 61.2231 420.438 62.2773 420.696L63.6552 421.028C65.3403 421.435 66.1537 422.165 66.1537 423.443V423.46C66.1537 425.054 64.6015 426.158 62.5678 426.158ZM71.6725 429.154C69.5143 429.154 68.1364 428.183 67.9122 426.714L67.9288 426.706H69.423L69.4313 426.714C69.589 427.395 70.3859 427.876 71.6725 427.876C73.2745 427.876 74.2291 427.121 74.2291 425.801V423.991H74.0963C73.5319 424.979 72.5192 425.535 71.2906 425.535C68.9747 425.535 67.5387 423.742 67.5387 421.235V421.219C67.5387 418.712 68.983 416.894 71.3239 416.894C72.5856 416.894 73.5651 417.517 74.1129 418.529H74.2125V417.052H75.6569V425.875C75.6569 427.876 74.1129 429.154 71.6725 429.154ZM71.6061 424.257C73.2662 424.257 74.2623 423.012 74.2623 421.235V421.219C74.2623 419.442 73.2579 418.172 71.6061 418.172C69.9459 418.172 69.0162 419.442 69.0162 421.219V421.235C69.0162 423.012 69.9459 424.257 71.6061 424.257ZM81.5907 426.158C79.034 426.158 77.4901 424.365 77.4901 421.559V421.551C77.4901 418.787 79.0672 416.894 81.4993 416.894C83.9315 416.894 85.409 418.704 85.409 421.376V421.941H78.9676C79.0091 423.792 80.0301 424.871 81.6239 424.871C82.8358 424.871 83.5828 424.298 83.8236 423.759L83.8568 423.684H85.3011L85.2845 423.75C84.9774 424.962 83.6991 426.158 81.5907 426.158ZM81.491 418.181C80.1629 418.181 79.1502 419.085 78.9925 420.787H83.9398C83.7904 419.019 82.8109 418.181 81.491 418.181ZM90.3135 426.158C88.3213 426.158 86.9517 425.195 86.7857 423.717H88.2632C88.5039 424.464 89.2178 424.954 90.3633 424.954C91.5669 424.954 92.4219 424.381 92.4219 423.568V423.551C92.4219 422.945 91.9654 422.522 90.8614 422.256L89.4751 421.924C87.7984 421.526 87.043 420.795 87.043 419.509V419.5C87.043 418.015 88.4707 416.894 90.3716 416.894C92.2476 416.894 93.5508 417.832 93.75 419.293H92.3306C92.1397 418.587 91.4424 418.098 90.3633 418.098C89.3008 418.098 88.5205 418.646 88.5205 419.434V419.451C88.5205 420.057 88.9688 420.438 90.023 420.696L91.4009 421.028C93.086 421.435 93.8995 422.165 93.8995 423.443V423.46C93.8995 425.054 92.3472 426.158 90.3135 426.158ZM98.8289 426.066C96.9861 426.066 96.2141 425.386 96.2141 423.676V418.247H94.803V417.052H96.2141V414.736H97.7083V417.052H99.6672V418.247H97.7083V423.311C97.7083 424.365 98.0735 424.788 99.0032 424.788C99.2605 424.788 99.4016 424.78 99.6672 424.755V425.983C99.385 426.033 99.1111 426.066 98.8289 426.066ZM104.954 426.158C102.397 426.158 100.853 424.365 100.853 421.559V421.551C100.853 418.787 102.43 416.894 104.862 416.894C107.294 416.894 108.772 418.704 108.772 421.376V421.941H102.331C102.372 423.792 103.393 424.871 104.987 424.871C106.199 424.871 106.946 424.298 107.186 423.759L107.22 423.684H108.664L108.647 423.75C108.34 424.962 107.062 426.158 104.954 426.158ZM104.854 418.181C103.526 418.181 102.513 419.085 102.355 420.787H107.303C107.153 419.019 106.174 418.181 104.854 418.181ZM110.688 426V413.499H112.132V426H110.688ZM114.58 426V413.499H116.024V426H114.58ZM121.568 426.066C119.725 426.066 118.953 425.386 118.953 423.676V418.247H117.542V417.052H118.953V414.736H120.447V417.052H122.406V418.247H120.447V423.311C120.447 424.365 120.813 424.788 121.742 424.788C122 424.788 122.141 424.78 122.406 424.755V425.983C122.124 426.033 121.85 426.066 121.568 426.066ZM131.833 426.158C129.567 426.158 128.082 424.323 128.082 421.534V421.518C128.082 418.712 129.559 416.894 131.833 416.894C133.062 416.894 134.133 417.508 134.623 418.463H134.755V413.499H136.2V426H134.755V424.572H134.623C134.075 425.568 133.079 426.158 131.833 426.158ZM132.166 424.879C133.792 424.879 134.789 423.601 134.789 421.534V421.518C134.789 419.451 133.792 418.172 132.166 418.172C130.53 418.172 129.559 419.434 129.559 421.518V421.534C129.559 423.618 130.53 424.879 132.166 424.879ZM141.561 426.158C139.527 426.158 138.481 424.962 138.481 422.846V417.052H139.925V422.497C139.925 424.107 140.507 424.879 141.934 424.879C143.511 424.879 144.35 423.917 144.35 422.348V417.052H145.794V426H144.35V424.664H144.217C143.777 425.618 142.872 426.158 141.561 426.158ZM148.084 426V417.052H149.528V418.38H149.661C150.001 417.442 150.84 416.894 152.052 416.894C152.326 416.894 152.633 416.927 152.774 416.952V418.355C152.475 418.305 152.201 418.272 151.886 418.272C150.508 418.272 149.528 419.144 149.528 420.455V426H148.084ZM157.562 426.158C155.055 426.158 153.453 424.34 153.453 421.501V421.484C153.453 418.704 155.047 416.894 157.554 416.894C159.729 416.894 161.032 418.147 161.297 419.741L161.306 419.791H159.87L159.861 419.766C159.637 418.886 158.84 418.172 157.554 418.172C155.943 418.172 154.931 419.467 154.931 421.484V421.501C154.931 423.56 155.96 424.879 157.554 424.879C158.757 424.879 159.521 424.348 159.853 423.352L159.87 423.302L161.297 423.294L161.281 423.385C160.916 425.004 159.712 426.158 157.562 426.158ZM163.089 426V413.499H164.534V418.396H164.666C165.115 417.45 165.953 416.894 167.273 416.894C169.282 416.894 170.402 418.081 170.402 420.206V426H168.958V420.555C168.958 418.944 168.294 418.172 166.866 418.172C165.438 418.172 164.534 419.135 164.534 420.704V426H163.089Z" fill="black"/>
<path d="M375.462 420.007C375.462 420.347 375.346 420.629 375.072 420.895L368.68 427.146C368.464 427.361 368.207 427.469 367.9 427.469C367.277 427.469 366.771 426.971 366.771 426.349C366.771 426.033 366.904 425.759 367.128 425.535L372.806 419.999L367.128 414.479C366.904 414.254 366.771 413.972 366.771 413.665C366.771 413.042 367.277 412.553 367.9 412.553C368.207 412.553 368.464 412.652 368.68 412.868L375.072 419.119C375.337 419.384 375.462 419.667 375.462 420.007Z" fill="#616161"/>
<rect x="38" y="442.5" width="359" height="0.5" fill="#C6C6C8"/>
</g>
<g clip-path="url(#clip5_8956_12591)">
<path d="M38.5728 472L42.9888 460.022H44.4663L48.8823 472H47.3135L46.1099 468.572H41.3452L40.1416 472H38.5728ZM43.6611 461.956L41.7852 467.302H45.6699L43.7939 461.956H43.6611ZM52.9733 472.158C50.9397 472.158 49.8938 470.962 49.8938 468.846V463.052H51.3381V468.497C51.3381 470.107 51.9191 470.879 53.3469 470.879C54.924 470.879 55.7624 469.917 55.7624 468.348V463.052H57.2067V472H55.7624V470.664H55.6296C55.1897 471.618 54.2849 472.158 52.9733 472.158ZM62.5678 472.158C60.5756 472.158 59.206 471.195 59.04 469.717H60.5175C60.7582 470.464 61.4721 470.954 62.6176 470.954C63.8212 470.954 64.6762 470.381 64.6762 469.568V469.551C64.6762 468.945 64.2196 468.522 63.1156 468.256L61.7294 467.924C60.0527 467.526 59.2973 466.795 59.2973 465.509V465.5C59.2973 464.015 60.725 462.894 62.6259 462.894C64.5019 462.894 65.8051 463.832 66.0043 465.293H64.5849C64.394 464.587 63.6967 464.098 62.6176 464.098C61.5551 464.098 60.7748 464.646 60.7748 465.434V465.451C60.7748 466.057 61.2231 466.438 62.2773 466.696L63.6552 467.028C65.3403 467.435 66.1537 468.165 66.1537 469.443V469.46C66.1537 471.054 64.6015 472.158 62.5678 472.158ZM71.6725 475.154C69.5143 475.154 68.1364 474.183 67.9122 472.714L67.9288 472.706H69.423L69.4313 472.714C69.589 473.395 70.3859 473.876 71.6725 473.876C73.2745 473.876 74.2291 473.121 74.2291 471.801V469.991H74.0963C73.5319 470.979 72.5192 471.535 71.2906 471.535C68.9747 471.535 67.5387 469.742 67.5387 467.235V467.219C67.5387 464.712 68.983 462.894 71.3239 462.894C72.5856 462.894 73.5651 463.517 74.1129 464.529H74.2125V463.052H75.6569V471.875C75.6569 473.876 74.1129 475.154 71.6725 475.154ZM71.6061 470.257C73.2662 470.257 74.2623 469.012 74.2623 467.235V467.219C74.2623 465.442 73.2579 464.172 71.6061 464.172C69.9459 464.172 69.0162 465.442 69.0162 467.219V467.235C69.0162 469.012 69.9459 470.257 71.6061 470.257ZM81.5907 472.158C79.034 472.158 77.4901 470.365 77.4901 467.559V467.551C77.4901 464.787 79.0672 462.894 81.4993 462.894C83.9315 462.894 85.409 464.704 85.409 467.376V467.941H78.9676C79.0091 469.792 80.0301 470.871 81.6239 470.871C82.8358 470.871 83.5828 470.298 83.8236 469.759L83.8568 469.684H85.3011L85.2845 469.75C84.9774 470.962 83.6991 472.158 81.5907 472.158ZM81.491 464.181C80.1629 464.181 79.1502 465.085 78.9925 466.787H83.9398C83.7904 465.019 82.8109 464.181 81.491 464.181ZM90.3135 472.158C88.3213 472.158 86.9517 471.195 86.7857 469.717H88.2632C88.5039 470.464 89.2178 470.954 90.3633 470.954C91.5669 470.954 92.4219 470.381 92.4219 469.568V469.551C92.4219 468.945 91.9654 468.522 90.8614 468.256L89.4751 467.924C87.7984 467.526 87.043 466.795 87.043 465.509V465.5C87.043 464.015 88.4707 462.894 90.3716 462.894C92.2476 462.894 93.5508 463.832 93.75 465.293H92.3306C92.1397 464.587 91.4424 464.098 90.3633 464.098C89.3008 464.098 88.5205 464.646 88.5205 465.434V465.451C88.5205 466.057 88.9688 466.438 90.023 466.696L91.4009 467.028C93.086 467.435 93.8995 468.165 93.8995 469.443V469.46C93.8995 471.054 92.3472 472.158 90.3135 472.158ZM98.8289 472.066C96.9861 472.066 96.2141 471.386 96.2141 469.676V464.247H94.803V463.052H96.2141V460.736H97.7083V463.052H99.6672V464.247H97.7083V469.311C97.7083 470.365 98.0735 470.788 99.0032 470.788C99.2605 470.788 99.4016 470.78 99.6672 470.755V471.983C99.385 472.033 99.1111 472.066 98.8289 472.066ZM104.954 472.158C102.397 472.158 100.853 470.365 100.853 467.559V467.551C100.853 464.787 102.43 462.894 104.862 462.894C107.294 462.894 108.772 464.704 108.772 467.376V467.941H102.331C102.372 469.792 103.393 470.871 104.987 470.871C106.199 470.871 106.946 470.298 107.186 469.759L107.22 469.684H108.664L108.647 469.75C108.34 470.962 107.062 472.158 104.954 472.158ZM104.854 464.181C103.526 464.181 102.513 465.085 102.355 466.787H107.303C107.153 465.019 106.174 464.181 104.854 464.181ZM110.688 472V459.499H112.132V472H110.688ZM114.58 472V459.499H116.024V472H114.58ZM121.568 472.066C119.725 472.066 118.953 471.386 118.953 469.676V464.247H117.542V463.052H118.953V460.736H120.447V463.052H122.406V464.247H120.447V469.311C120.447 470.365 120.813 470.788 121.742 470.788C122 470.788 122.141 470.78 122.406 470.755V471.983C122.124 472.033 121.85 472.066 121.568 472.066ZM130.987 472.158C129.285 472.158 127.999 471.128 127.999 469.501V469.485C127.999 467.891 129.177 466.97 131.261 466.845L133.826 466.688V465.874C133.826 464.77 133.153 464.172 131.817 464.172C130.746 464.172 130.041 464.571 129.808 465.268L129.8 465.293H128.355L128.364 465.243C128.596 463.84 129.958 462.894 131.867 462.894C134.05 462.894 135.27 464.015 135.27 465.874V472H133.826V470.68H133.693C133.128 471.635 132.19 472.158 130.987 472.158ZM129.476 469.468C129.476 470.373 130.248 470.904 131.286 470.904C132.755 470.904 133.826 469.941 133.826 468.663V467.85L131.435 467.999C130.074 468.082 129.476 468.563 129.476 469.452V469.468ZM137.502 472V463.052H138.946V464.396H139.079C139.527 463.45 140.365 462.894 141.685 462.894C143.694 462.894 144.815 464.081 144.815 466.206V472H143.37V466.555C143.37 464.944 142.706 464.172 141.279 464.172C139.851 464.172 138.946 465.135 138.946 466.704V472H137.502Z" fill="black"/>
<path d="M375.462 466.007C375.462 466.347 375.346 466.629 375.072 466.895L368.68 473.146C368.464 473.361 368.207 473.469 367.9 473.469C367.277 473.469 366.771 472.971 366.771 472.349C366.771 472.033 366.904 471.759 367.128 471.535L372.806 465.999L367.128 460.479C366.904 460.254 366.771 459.972 366.771 459.665C366.771 459.042 367.277 458.553 367.9 458.553C368.207 458.553 368.464 458.652 368.68 458.868L375.072 465.119C375.337 465.384 375.462 465.667 375.462 466.007Z" fill="#616161"/>
<rect x="38" y="488.5" width="359" height="0.5" fill="#C6C6C8"/>
</g>
<rect x="86" y="711" width="249" height="52" rx="16" fill="#2B6CB0"/>
<path d="M151.58 743V741.572L157.881 732.973V732.823H151.755V731.022H160.529V732.45L154.253 741.049V741.199H160.686V743H151.58ZM165.167 743.149C163.441 743.149 162.187 742.087 162.187 740.435V740.418C162.187 738.8 163.424 737.854 165.632 737.721L167.965 737.58V736.799C167.965 735.895 167.375 735.396 166.263 735.396C165.317 735.396 164.703 735.737 164.495 736.334L164.487 736.368H162.536L162.544 736.293C162.744 734.766 164.205 733.753 166.363 733.753C168.695 733.753 170.007 734.882 170.007 736.799V743H167.965V741.755H167.824C167.326 742.635 166.363 743.149 165.167 743.149ZM164.229 740.335C164.229 741.107 164.885 741.564 165.798 741.564C167.043 741.564 167.965 740.75 167.965 739.671V738.941L165.923 739.074C164.769 739.148 164.229 739.572 164.229 740.319V740.335ZM172.164 743V730.416H174.231V735.313H174.372C174.803 734.342 175.675 733.753 176.986 733.753C179.012 733.753 180.116 734.973 180.116 737.131V743H178.049V737.613C178.049 736.202 177.476 735.488 176.223 735.488C174.994 735.488 174.231 736.351 174.231 737.712V743H172.164ZM182.231 743V730.416H184.298V743H182.231ZM189.51 743.183C187.468 743.183 186.422 741.954 186.422 739.796V733.927H188.489V739.323C188.489 740.726 189.012 741.439 190.257 741.439C191.593 741.439 192.307 740.576 192.307 739.215V733.927H194.374V743H192.307V741.622H192.166C191.743 742.593 190.821 743.183 189.51 743.183ZM196.49 743V733.927H198.556V735.313H198.698C199.129 734.342 200.001 733.753 201.312 733.753C203.338 733.753 204.442 734.973 204.442 737.131V743H202.375V737.613C202.375 736.202 201.802 735.488 200.549 735.488C199.32 735.488 198.556 736.351 198.556 737.712V743H196.49ZM210.375 746.188C207.985 746.188 206.549 745.167 206.341 743.639L206.35 743.614H208.417L208.425 743.639C208.566 744.22 209.255 744.627 210.409 744.627C211.82 744.627 212.642 743.971 212.642 742.809V741.074H212.5C211.978 742.045 210.99 742.577 209.736 742.577C207.437 742.577 206.009 740.8 206.009 738.227V738.21C206.009 735.587 207.437 733.778 209.778 733.778C211.031 733.778 212.011 734.392 212.525 735.421H212.633V733.927H214.7V742.776C214.7 744.868 213.023 746.188 210.375 746.188ZM210.375 740.933C211.812 740.933 212.675 739.829 212.675 738.227V738.21C212.675 736.608 211.803 735.496 210.375 735.496C208.939 735.496 208.126 736.608 208.126 738.21V738.227C208.126 739.829 208.939 740.933 210.375 740.933ZM220.252 743.183C217.945 743.183 216.55 742.12 216.376 740.584V740.568H218.426L218.434 740.584C218.65 741.215 219.256 741.655 220.285 741.655C221.315 741.655 222.029 741.19 222.029 740.51V740.493C222.029 739.962 221.63 739.613 220.634 739.389L219.165 739.057C217.438 738.675 216.616 737.862 216.616 736.525V736.517C216.616 734.882 218.111 733.753 220.252 733.753C222.46 733.753 223.78 734.849 223.913 736.318V736.334H221.97L221.962 736.31C221.813 735.737 221.215 735.272 220.244 735.272C219.322 735.272 218.658 735.72 218.658 736.401V736.409C218.658 736.94 219.04 737.264 220.02 737.488L221.489 737.812C223.265 738.21 224.104 738.966 224.104 740.286V740.302C224.104 742.029 222.485 743.183 220.252 743.183ZM229.05 743.149C226.775 743.149 225.331 741.348 225.331 738.476V738.459C225.331 735.571 226.75 733.778 229.05 733.778C230.295 733.778 231.332 734.392 231.806 735.372H231.947V730.416H234.022V743H231.947V741.581H231.806C231.308 742.568 230.328 743.149 229.05 743.149ZM229.697 741.406C231.108 741.406 231.98 740.294 231.98 738.476V738.459C231.98 736.642 231.1 735.521 229.697 735.521C228.294 735.521 227.431 736.633 227.431 738.459V738.476C227.431 740.302 228.286 741.406 229.697 741.406ZM238.686 743.149C236.959 743.149 235.706 742.087 235.706 740.435V740.418C235.706 738.8 236.943 737.854 239.151 737.721L241.483 737.58V736.799C241.483 735.895 240.894 735.396 239.781 735.396C238.835 735.396 238.221 735.737 238.013 736.334L238.005 736.368H236.054L236.063 736.293C236.262 734.766 237.723 733.753 239.881 733.753C242.214 733.753 243.525 734.882 243.525 736.799V743H241.483V741.755H241.342C240.844 742.635 239.881 743.149 238.686 743.149ZM237.748 740.335C237.748 741.107 238.403 741.564 239.317 741.564C240.562 741.564 241.483 740.75 241.483 739.671V738.941L239.441 739.074C238.287 739.148 237.748 739.572 237.748 740.319V740.335ZM249.168 743.042C247.085 743.042 246.23 742.344 246.23 740.593V735.529H244.819V733.927H246.23V731.703H248.33V733.927H250.247V735.529H248.33V740.103C248.33 741.008 248.687 741.39 249.55 741.39C249.841 741.39 249.998 741.381 250.247 741.356V742.95C249.949 743.008 249.567 743.042 249.168 743.042ZM255.7 743.183C253.002 743.183 251.367 741.373 251.367 738.484V738.476C251.367 735.621 253.019 733.753 255.6 733.753C258.182 733.753 259.775 735.562 259.775 738.302V738.982H253.434C253.459 740.609 254.338 741.556 255.741 741.556C256.862 741.556 257.501 740.991 257.7 740.576L257.725 740.518H259.692L259.668 740.593C259.377 741.763 258.165 743.183 255.7 743.183ZM255.625 735.372C254.471 735.372 253.608 736.152 253.45 737.596H257.758C257.617 736.11 256.779 735.372 255.625 735.372ZM261.434 743V733.927H263.501V735.313H263.642C264.074 734.342 264.946 733.753 266.257 733.753C268.282 733.753 269.386 734.973 269.386 737.131V743H267.32V737.613C267.32 736.202 266.747 735.488 265.493 735.488C264.265 735.488 263.501 736.351 263.501 737.712V743H261.434Z" fill="white"/>
<rect x="60" y="767.5" width="301" height="51" rx="15.5" fill="white"/>
<rect x="60" y="767.5" width="301" height="51" rx="15.5" stroke="#2B6CB0"/>
<path d="M124.089 799L128.339 787.022H130.755L135.005 799H132.764L131.759 795.904H127.327L126.331 799H124.089ZM129.477 789.247L127.866 794.252H131.228L129.618 789.247H129.477ZM136.523 799V786.416H138.59V799H136.523ZM144.225 799.183C141.917 799.183 140.522 798.12 140.348 796.584V796.568H142.398L142.407 796.584C142.622 797.215 143.228 797.655 144.258 797.655C145.287 797.655 146.001 797.19 146.001 796.51V796.493C146.001 795.962 145.602 795.613 144.606 795.389L143.137 795.057C141.411 794.675 140.589 793.862 140.589 792.525V792.517C140.589 790.882 142.083 789.753 144.225 789.753C146.433 789.753 147.752 790.849 147.885 792.318V792.334H145.943L145.934 792.31C145.785 791.737 145.187 791.272 144.216 791.272C143.295 791.272 142.631 791.72 142.631 792.401V792.409C142.631 792.94 143.013 793.264 143.992 793.488L145.461 793.812C147.238 794.21 148.076 794.966 148.076 796.286V796.302C148.076 798.029 146.457 799.183 144.225 799.183ZM158.923 799.149C157.653 799.149 156.665 798.568 156.167 797.581H156.026V799H153.959V786.416H156.026V791.372H156.167C156.64 790.392 157.678 789.778 158.923 789.778C161.222 789.778 162.65 791.571 162.65 794.459V794.476C162.65 797.348 161.197 799.149 158.923 799.149ZM158.275 797.406C159.686 797.406 160.541 796.302 160.541 794.476V794.459C160.541 792.633 159.686 791.521 158.275 791.521C156.872 791.521 156.001 792.642 156.001 794.459V794.476C156.001 796.294 156.872 797.406 158.275 797.406ZM168.193 799.183C165.496 799.183 163.86 797.373 163.86 794.484V794.476C163.86 791.621 165.512 789.753 168.094 789.753C170.675 789.753 172.269 791.562 172.269 794.302V794.982H165.927C165.952 796.609 166.832 797.556 168.235 797.556C169.356 797.556 169.995 796.991 170.194 796.576L170.219 796.518H172.186L172.161 796.593C171.871 797.763 170.659 799.183 168.193 799.183ZM168.119 791.372C166.965 791.372 166.102 792.152 165.944 793.596H170.252C170.111 792.11 169.272 791.372 168.119 791.372ZM173.72 799V797.738L178.56 791.67V791.529H173.762V789.927H181V791.305L176.335 797.257V797.406H181.075V799H173.72ZM185.457 799.149C183.73 799.149 182.477 798.087 182.477 796.435V796.418C182.477 794.8 183.713 793.854 185.921 793.721L188.254 793.58V792.799C188.254 791.895 187.665 791.396 186.552 791.396C185.606 791.396 184.992 791.737 184.784 792.334L184.776 792.368H182.825L182.833 792.293C183.033 790.766 184.494 789.753 186.652 789.753C188.984 789.753 190.296 790.882 190.296 792.799V799H188.254V797.755H188.113C187.615 798.635 186.652 799.149 185.457 799.149ZM184.519 796.335C184.519 797.107 185.174 797.564 186.087 797.564C187.332 797.564 188.254 796.75 188.254 795.671V794.941L186.212 795.074C185.058 795.148 184.519 795.572 184.519 796.319V796.335ZM192.453 799V786.416H194.52V791.313H194.661C195.092 790.342 195.964 789.753 197.276 789.753C199.301 789.753 200.405 790.973 200.405 793.131V799H198.338V793.613C198.338 792.202 197.765 791.488 196.512 791.488C195.283 791.488 194.52 792.351 194.52 793.712V799H192.453ZM202.52 799V786.416H204.587V799H202.52ZM210.363 799.042C208.28 799.042 207.425 798.344 207.425 796.593V791.529H206.014V789.927H207.425V787.703H209.525V789.927H211.442V791.529H209.525V796.103C209.525 797.008 209.882 797.39 210.745 797.39C211.036 797.39 211.193 797.381 211.442 797.356V798.95C211.144 799.008 210.762 799.042 210.363 799.042ZM217.217 799V789.927H219.284V791.338H219.425C219.815 790.326 220.729 789.753 221.916 789.753C223.144 789.753 224.041 790.384 224.431 791.388H224.572C225.012 790.4 226.058 789.753 227.319 789.753C229.146 789.753 230.241 790.874 230.241 792.758V799H228.174V793.264C228.174 792.085 227.635 791.488 226.531 791.488C225.452 791.488 224.754 792.293 224.754 793.331V799H222.688V793.115C222.688 792.11 222.065 791.488 221.052 791.488C220.031 791.488 219.284 792.351 219.284 793.48V799H217.217ZM234.756 799.149C233.029 799.149 231.776 798.087 231.776 796.435V796.418C231.776 794.8 233.012 793.854 235.22 793.721L237.553 793.58V792.799C237.553 791.895 236.964 791.396 235.851 791.396C234.905 791.396 234.291 791.737 234.083 792.334L234.075 792.368H232.124L232.133 792.293C232.332 790.766 233.793 789.753 235.951 789.753C238.283 789.753 239.595 790.882 239.595 792.799V799H237.553V797.755H237.412C236.914 798.635 235.951 799.149 234.756 799.149ZM233.818 796.335C233.818 797.107 234.473 797.564 235.386 797.564C236.632 797.564 237.553 796.75 237.553 795.671V794.941L235.511 795.074C234.357 795.148 233.818 795.572 233.818 796.319V796.335ZM241.669 799V789.927H243.736V791.322H243.877C244.184 790.351 245.014 789.778 246.209 789.778C246.525 789.778 246.849 789.819 247.048 789.877V791.729C246.716 791.662 246.375 791.612 246.018 791.612C244.641 791.612 243.736 792.434 243.736 793.729V799H241.669ZM248.416 799V786.416H250.483V793.646H250.624L253.969 789.927H256.36L252.708 793.762L256.609 799H254.119L251.205 795.074L250.483 795.812V799H248.416ZM258.849 788.408C258.168 788.408 257.612 787.869 257.612 787.188C257.612 786.516 258.168 785.968 258.849 785.968C259.521 785.968 260.077 786.516 260.077 787.188C260.077 787.869 259.521 788.408 258.849 788.408ZM257.811 799V789.927H259.878V799H257.811ZM265.895 799.183C263.197 799.183 261.562 797.373 261.562 794.484V794.476C261.562 791.621 263.214 789.753 265.795 789.753C268.377 789.753 269.971 791.562 269.971 794.302V794.982H263.629C263.654 796.609 264.534 797.556 265.937 797.556C267.057 797.556 267.696 796.991 267.896 796.576L267.92 796.518H269.888L269.863 796.593C269.572 797.763 268.36 799.183 265.895 799.183ZM265.82 791.372C264.667 791.372 263.803 792.152 263.646 793.596H267.954C267.813 792.11 266.974 791.372 265.82 791.372ZM271.63 799V789.927H273.697V791.322H273.838C274.145 790.351 274.975 789.778 276.17 789.778C276.486 789.778 276.809 789.819 277.009 789.877V791.729C276.677 791.662 276.336 791.612 275.979 791.612C274.601 791.612 273.697 792.434 273.697 793.729V799H271.63ZM281.963 799.183C279.265 799.183 277.63 797.373 277.63 794.484V794.476C277.63 791.621 279.282 789.753 281.863 789.753C284.445 789.753 286.039 791.562 286.039 794.302V794.982H279.697C279.722 796.609 280.602 797.556 282.004 797.556C283.125 797.556 283.764 796.991 283.963 796.576L283.988 796.518H285.956L285.931 796.593C285.64 797.763 284.428 799.183 281.963 799.183ZM281.888 791.372C280.734 791.372 279.871 792.152 279.713 793.596H284.021C283.88 792.11 283.042 791.372 281.888 791.372ZM287.697 799V789.927H289.764V791.313H289.905C290.337 790.342 291.209 789.753 292.52 789.753C294.546 789.753 295.65 790.973 295.65 793.131V799H293.583V793.613C293.583 792.202 293.01 791.488 291.757 791.488C290.528 791.488 289.764 792.351 289.764 793.712V799H287.697Z" fill="#2B6CB0"/>
</g>
<path d="M412.451 133.617H411.656V50.1249C411.656 22.4413 389.201 0 361.502 0H57.4983C29.7986 0 7.34431 22.4413 7.34431 50.1249V133.617H6.54884C2.93379 133.617 0 136.545 0 140.162V197.918C0 201.531 2.92985 204.463 6.54884 204.463H7.34431V218.238H6.54884C2.93379 218.238 0 221.166 0 224.783V282.539C0 286.152 2.92985 289.084 6.54884 289.084H7.34431V794.875C7.34431 822.559 29.7986 845 57.4983 845H361.502C389.201 845 411.656 822.559 411.656 794.875V239.88H412.451C416.066 239.88 419 236.952 419 233.335V140.158C419 136.545 416.07 133.613 412.451 133.613V133.617ZM397.062 791.884C397.062 814.369 378.825 832.595 356.327 832.595H62.6728C40.1752 832.595 21.9384 814.369 21.9384 791.884V53.1082C21.9384 30.6236 40.1752 12.3974 62.6728 12.3974H356.323C378.821 12.3974 397.058 30.6236 397.058 53.1082V791.88L397.062 791.884Z" fill="black"/>
<defs>
<filter id="filter0_dd_8956_12591" x="201" y="257.5" width="186.5" height="41" filterUnits="userSpaceOnUse" color-interpolation-filters="sRGB">
<feFlood flood-opacity="0" result="BackgroundImageFix"/>
<feColorMatrix in="SourceAlpha" type="matrix" values="0 0 0 0 0 0 0 0 0 0 0 0 0 0 0 0 0 0 127 0" result="hardAlpha"/>
<feOffset dy="3"/>
<feGaussianBlur stdDeviation="0.5"/>
<feColorMatrix type="matrix" values="0 0 0 0 0 0 0 0 0 0 0 0 0 0 0 0 0 0 0.04 0"/>
<feBlend mode="normal" in2="BackgroundImageFix" result="effect1_dropShadow_8956_12591"/>
<feColorMatrix in="SourceAlpha" type="matrix" values="0 0 0 0 0 0 0 0 0 0 0 0 0 0 0 0 0 0 127 0" result="hardAlpha"/>
<feOffset dy="3"/>
<feGaussianBlur stdDeviation="4"/>
<feColorMatrix type="matrix" values="0 0 0 0 0 0 0 0 0 0 0 0 0 0 0 0 0 0 0.12 0"/>
<feBlend mode="normal" in2="effect1_dropShadow_8956_12591" result="effect2_dropShadow_8956_12591"/>
<feBlend mode="normal" in="SourceGraphic" in2="effect2_dropShadow_8956_12591" result="shape"/>
</filter>
<clipPath id="clip0_8956_12591">
<rect width="375" height="824" fill="white" transform="translate(23 11)"/>
</clipPath>
<clipPath id="clip1_8956_12591">
<rect x="38" y="261" width="343" height="28" rx="9" fill="white"/>
</clipPath>
<clipPath id="clip2_8956_12591">
<rect width="343" height="46" fill="white" transform="translate(38 305)"/>
</clipPath>
<clipPath id="clip3_8956_12591">
<rect width="343" height="46" fill="white" transform="translate(38 351)"/>
</clipPath>
<clipPath id="clip4_8956_12591">
<rect width="343" height="46" fill="white" transform="translate(38 397)"/>
</clipPath>
<clipPath id="clip5_8956_12591">
<rect width="343" height="46" fill="white" transform="translate(38 443)"/>
</clipPath>
</defs>
</svg>
